<svg width="28" height="28" viewBox="0 0 28 28" fill="none" xmlns="http://www.w3.org/2000/svg">
<path d="M14.0001 4.56519C14.3348 4.56519 14.6088 4.29128 14.6088 3.9565V3.65215C14.6088 3.31737 14.3348 3.04346 14.0001 3.04346C13.6653 3.04346 13.3914 3.31737 13.3914 3.65215V3.9565C13.3914 4.29128 13.6653 4.56519 14.0001 4.56519Z" fill="black"/>
<path d="M14.0001 23.4346C13.6653 23.4346 13.3914 23.7085 13.3914 24.0433V24.3476C13.3914 24.6824 13.6653 24.9563 14.0001 24.9563C14.3348 24.9563 14.6088 24.6824 14.6088 24.3476V24.0433C14.6088 23.7085 14.3348 23.4346 14.0001 23.4346Z" fill="black"/>
<path d="M3.9565 13.3914H3.65215C3.31737 13.3914 3.04346 13.6653 3.04346 14.0001C3.04346 14.3348 3.31737 14.6087 3.65215 14.6087H3.9565C4.29128 14.6087 4.56519 14.3348 4.56519 14.0001C4.56519 13.6653 4.29128 13.3914 3.9565 13.3914Z" fill="black"/>
<path d="M24.3479 13.3914H24.0435C23.7087 13.3914 23.4348 13.6653 23.4348 14.0001C23.4348 14.3348 23.7087 14.6087 24.0435 14.6087H24.3479C24.6826 14.6087 24.9566 14.3348 24.9566 14.0001C24.9566 13.6653 24.6826 13.3914 24.3479 13.3914Z" fill="black"/>
<path d="M7.1217 6.26952C6.87822 6.02604 6.513 6.02604 6.26952 6.26952C6.02604 6.513 6.02604 6.87822 6.26952 7.1217L6.48257 7.33474C6.60431 7.45648 6.75648 7.51735 6.90865 7.51735C7.06083 7.51735 7.213 7.45648 7.33474 7.33474C7.57822 7.09126 7.57822 6.72604 7.33474 6.48257L7.1217 6.26952Z" fill="black"/>
<path d="M6.48257 20.6653L6.26952 20.8783C6.02604 21.1218 6.02604 21.487 6.26952 21.7305C6.39126 21.8522 6.54344 21.9131 6.69561 21.9131C6.84778 21.9131 6.99996 21.8522 7.1217 21.7305L7.33474 21.5175C7.57822 21.274 7.57822 20.9088 7.33474 20.6653C7.09126 20.4218 6.72605 20.4218 6.48257 20.6653Z" fill="black"/>
<path d="M20.8783 6.26952L20.6653 6.48257C20.4218 6.72604 20.4218 7.09126 20.6653 7.33474C20.787 7.45648 20.9392 7.51735 21.0914 7.51735C21.2435 7.51735 21.3957 7.45648 21.5175 7.33474L21.7305 7.1217C21.974 6.87822 21.974 6.513 21.7305 6.26952C21.487 6.02604 21.1218 6.02604 20.8783 6.26952Z" fill="black"/>
<path d="M14.6087 13.7565V8.21734C14.6087 7.88256 14.3348 7.60864 14.0001 7.60864C13.6653 7.60864 13.3914 7.88256 13.3914 8.21734V13.9999C13.3914 14.1521 13.4522 14.3043 13.574 14.426L20.2392 21.0913C20.3609 21.213 20.5131 21.2739 20.6653 21.2739C20.8174 21.2739 20.9696 21.213 21.0913 21.0913C21.3348 20.8478 21.3348 20.4826 21.0913 20.2391L14.6087 13.7565Z" fill="black"/>
<path d="M14 0C6.26957 0 0 6.26957 0 14C0 21.7304 6.26957 28 14 28C21.7304 28 28 21.7304 28 14C28 6.26957 21.7304 0 14 0ZM14 26.7826C6.93913 26.7826 1.21739 21.0609 1.21739 14C1.21739 6.93913 6.93913 1.21739 14 1.21739C21.0609 1.21739 26.7826 6.93913 26.7826 14C26.7826 21.0609 21.0609 26.7826 14 26.7826Z" fill="black"/>
</svg>
