<svg width="100" height="100" viewBox="0 0 100 100" fill="none" xmlns="http://www.w3.org/2000/svg">
<g clip-path="url(#clip0)">
<path d="M21.8958 22.6459H12.6963C8.51314 22.6459 5.22955 26.067 5.59693 30.0426L7.14498 46.7943H21.8958V22.6459Z" fill="#D77F4A"/>
<path d="M40.348 69.6254C39.095 69.6254 10.8651 69.6254 9.60342 69.6254H9.39658C5.79248 69.6254 2.87061 72.5472 2.87061 76.1513V89.659H47.131V76.1513C47.1312 72.7801 44.5314 69.6254 40.348 69.6254Z" fill="#65CCBB"/>
<path d="M18.1914 69.6254C18.2361 73.3491 21.2668 76.3544 25.0006 76.3544C28.7346 76.3544 31.765 73.3491 31.8098 69.6254H18.1914Z" fill="#82AEE3"/>
<path d="M25.0008 71.7491L18.1895 67.1809L14.0672 69.167C13.6086 69.3879 13.5145 70.0002 13.8856 70.3489L19.461 75.5852C19.7293 75.8372 20.1438 75.8481 20.425 75.6108L25.0008 71.7491Z" fill="#C0D6F2"/>
<path d="M25.001 71.7491L31.8123 67.1809L35.9346 69.167C36.3932 69.3879 36.4873 70.0002 36.1162 70.3489L30.5408 75.5852C30.2725 75.8372 29.858 75.8481 29.5768 75.6108L25.001 71.7491Z" fill="#C0D6F2"/>
<path d="M31.8121 53.235H18.1895V67.1809L25.0008 71.7491L31.8121 67.1809V53.235Z" fill="#FFB09E"/>
<path d="M40.3477 69.6254C40.0176 69.6254 37.8135 69.6254 34.7246 69.6254C38.908 69.6254 41.5078 72.7801 41.5078 76.1513V89.659H47.1309V76.1513C47.1309 72.7801 44.5311 69.6254 40.3477 69.6254Z" fill="#01998D"/>
<path d="M35.9348 69.167L31.8123 67.1809L29.6752 68.6141L30.8229 69.167C31.2814 69.3879 31.3756 70.0002 31.0045 70.3489L27.3779 73.7551L29.577 75.611C29.8582 75.8483 30.2727 75.8374 30.541 75.5854L36.1164 70.3491C36.4875 70.0002 36.3934 69.3879 35.9348 69.167Z" fill="#B2CAEC"/>
<path d="M18.1895 66.0145C20.2285 66.9305 22.4893 67.4405 24.8695 67.4405H25.0834C27.4824 67.4405 29.7605 66.9227 31.8123 65.9928V52.7239H18.1895V66.0145Z" fill="#FFA78F"/>
<path d="M16.9514 51.1767H8.53047C5.45059 51.1767 2.9541 48.68 2.9541 45.6003C2.9541 42.5204 5.45078 40.0239 8.53047 40.0239H16.9514V51.1767Z" fill="#FFB09E"/>
<path d="M33 40.0237H41.4109C44.4908 40.0237 46.9873 42.5204 46.9873 45.6C46.9873 48.6797 44.4906 51.1764 41.4109 51.1764H33V40.0237Z" fill="#FFA78F"/>
<path d="M25.0835 64.8848H24.8696C15.8573 64.8848 8.55127 57.5788 8.55127 48.5665V42.634C8.55127 33.6217 15.8573 26.3157 24.8696 26.3157H25.0835C34.0958 26.3157 41.4019 33.6217 41.4019 42.634V48.5665C41.4019 57.5788 34.0958 64.8848 25.0835 64.8848Z" fill="#FFCEBF"/>
<path d="M25.0837 26.3157H24.8698C24.214 26.3157 23.5677 26.3555 22.9321 26.4307C31.031 27.3891 37.3128 34.2774 37.3128 42.634V48.5665C37.3128 56.9231 31.031 63.8114 22.9321 64.7698C23.5677 64.845 24.2142 64.8848 24.8698 64.8848H25.0837C34.096 64.8848 41.4021 57.5788 41.4021 48.5665V42.634C41.4021 33.6215 34.096 26.3157 25.0837 26.3157Z" fill="#FFB09E"/>
<path d="M36.8977 54.3215H34.0488C33.302 54.3215 32.6963 53.7161 32.6963 52.969C32.6963 52.2219 33.3018 51.6165 34.0488 51.6165H36.8977C37.6445 51.6165 38.2502 52.2219 38.2502 52.969C38.2502 53.7161 37.6447 54.3215 36.8977 54.3215Z" fill="#FE8F83"/>
<path d="M15.9525 54.3215H13.1035C12.3566 54.3215 11.751 53.7161 11.751 52.969C11.751 52.2219 12.3564 51.6165 13.1035 51.6165H15.9523C16.6992 51.6165 17.3049 52.2219 17.3049 52.969C17.3049 53.7161 16.6994 54.3215 15.9525 54.3215Z" fill="#FE8F83"/>
<path d="M40.7641 23.0274C39.4572 19.8343 36.3207 17.5839 32.657 17.5839H19.3813C13.9811 17.5839 9.60352 21.9616 9.60352 27.3616C9.60352 34.2307 15.0742 39.8182 21.8959 40.0145V40.0239H44.4965L45.4217 30.013C45.7135 26.855 43.7006 24.0489 40.7641 23.0274Z" fill="#D77F4A"/>
<path d="M40.7643 23.0274C39.4574 19.8343 36.3209 17.5839 32.6572 17.5839H27.0342C30.6979 17.5839 33.8344 19.8343 35.1412 23.0274C38.0777 24.0489 40.0906 26.855 39.7986 30.0128L38.8734 40.0237H44.4965L45.4217 30.0128C45.7137 26.855 43.7008 24.0489 40.7643 23.0274Z" fill="#C86D36"/>
<path d="M29.9635 53.1393C29.9635 55.894 27.7307 58.1271 24.9764 58.1271C22.2221 58.1271 19.9893 55.894 19.9893 53.1393H29.9635Z" fill="#FFB09E"/>
<path d="M84.1308 70.8052C78.831 70.8052 74.5347 66.5089 74.5347 61.2091C74.5347 55.9093 78.831 51.613 84.1308 51.613C89.4306 51.613 93.7269 55.9093 93.7269 61.2091C93.7269 66.5089 89.4306 70.8052 84.1308 70.8052Z" fill="#5A5A5A"/>
<path d="M84.1309 51.613C83.2477 51.613 82.3932 51.7347 81.5811 51.9582C85.6426 53.0753 88.6273 56.7925 88.6273 61.2091C88.6273 65.6257 85.6428 69.3429 81.5811 70.4601C82.3934 70.6835 83.2477 70.8052 84.1309 70.8052C89.4307 70.8052 93.727 66.5089 93.727 61.2091C93.727 55.9093 89.4307 51.613 84.1309 51.613Z" fill="#444444"/>
<path d="M96.6638 89.6591H52.0464V76.0892C52.0464 72.2142 55.1878 69.0728 59.0628 69.0728H89.6474C93.5224 69.0728 96.6638 72.2142 96.6638 76.0892V89.6591Z" fill="#C0D6F2"/>
<path d="M89.6475 69.0726H85.0576C88.9326 69.0726 92.074 72.214 92.074 76.089V89.6589H96.6639V76.089C96.6639 72.214 93.5225 69.0726 89.6475 69.0726Z" fill="#B2CAEC"/>
<path d="M59.1641 69.0726H89.5469V89.6589H59.1641V69.0726Z" fill="#528FD8"/>
<path d="M74.5349 76.0735C70.6692 76.0735 67.5356 72.9397 67.5356 69.0742V52.2301H81.5343V69.0742C81.5341 72.9397 78.4005 76.0735 74.5349 76.0735Z" fill="#FFB09E"/>
<path d="M67.5352 68.2213C69.6619 69.1893 72.025 69.7289 74.5143 69.7289C77.0193 69.7289 79.3965 69.1821 81.5338 68.2024V52.2301H67.5352V68.2213Z" fill="#FFA78F"/>
<path d="M66.2633 52.0786H57.6131C54.4467 52.0786 51.8799 49.5118 51.8799 46.3454C51.8799 43.179 54.4467 40.6122 57.6131 40.6122H66.2633V52.0786Z" fill="#FFB09E"/>
<path d="M82.7544 40.6119H91.4046C94.571 40.6119 97.1378 43.1787 97.1378 46.3451C97.1378 49.5115 94.571 52.0783 91.4046 52.0783H82.7544V40.6119Z" fill="#FFA78F"/>
<path d="M74.5148 66.1601C65.1998 66.1601 57.6484 58.6087 57.6484 49.2937V43.4062C57.6484 34.0912 65.1998 26.5398 74.5148 26.5398C83.8299 26.5398 91.3813 34.0912 91.3813 43.4062V49.2937C91.3813 58.6087 83.8299 66.1601 74.5148 66.1601Z" fill="#FFCEBF"/>
<path d="M74.5146 26.5398C73.7361 26.5398 72.9703 26.5937 72.2197 26.6958C80.449 27.8156 86.7912 34.8697 86.7912 43.4062V49.2937C86.7912 57.8302 80.449 64.8843 72.2197 66.0041C72.9703 66.1062 73.7361 66.1601 74.5146 66.1601C83.8297 66.1601 91.381 58.6087 91.381 49.2937V43.4062C91.381 34.0912 83.8297 26.5398 74.5146 26.5398Z" fill="#FFB09E"/>
<path d="M74.5148 66.1601C65.1998 66.1601 57.6484 58.6087 57.6484 49.2937V43.4062C57.6484 34.0912 65.1998 26.5398 74.5148 26.5398C83.8299 26.5398 91.3813 34.0912 91.3813 43.4062V49.2937C91.3813 58.6087 83.8299 66.1601 74.5148 66.1601Z" fill="#FFCEBF"/>
<path d="M74.5145 26.5398C73.8238 26.5398 73.1434 26.5824 72.4746 26.6628C80.8275 27.6701 87.3012 34.7816 87.3012 43.4062V49.2937C87.3012 57.9183 80.8275 65.0298 72.4746 66.0371C73.1434 66.1177 73.824 66.1601 74.5145 66.1601C83.8295 66.1601 91.3809 58.6087 91.3809 49.2937V43.4062C91.3809 34.0912 83.8295 26.5398 74.5145 26.5398Z" fill="#FFB09E"/>
<path d="M59.1963 40.612H54.6406V37.3851C54.6406 27.624 62.5535 19.7111 72.3146 19.7111H72.3635C74.1727 19.7111 75.6391 21.1777 75.6391 22.9866V24.1691C75.6393 33.2503 68.2775 40.612 59.1963 40.612Z" fill="#5A5A5A"/>
<path d="M93.7271 40.612H75.0394C68.3274 40.612 62.8862 35.1708 62.8862 28.4589C62.8862 23.6277 66.8028 19.7111 71.6341 19.7111H76.8606C86.1757 19.7111 93.7271 27.2624 93.7271 36.5775V40.612Z" fill="#5A5A5A"/>
<path d="M76.8605 19.7113H71.7607C81.0758 19.7113 88.6271 27.2627 88.6271 36.5777V40.6123H93.727V36.5777C93.727 27.2627 86.1756 19.7113 76.8605 19.7113Z" fill="#444444"/>
<path d="M86.2334 54.4047H83.3912C82.6461 54.4047 82.042 53.8006 82.042 53.0553C82.042 52.31 82.6461 51.7061 83.3912 51.7061H86.2334C86.9785 51.7061 87.5826 52.3102 87.5826 53.0553C87.5826 53.8006 86.9785 54.4047 86.2334 54.4047Z" fill="#FE8F83"/>
<path d="M65.3371 54.4047H62.4949C61.7498 54.4047 61.1455 53.8006 61.1455 53.0553C61.1455 52.31 61.7496 51.7061 62.4949 51.7061H65.3371C66.0822 51.7061 66.6863 52.3102 66.6863 53.0553C66.6863 53.8006 66.0822 54.4047 65.3371 54.4047Z" fill="#FE8F83"/>
<path d="M79.4869 54.4045C79.4869 57.1592 77.2541 59.3924 74.4998 59.3924C71.7455 59.3924 69.5127 57.1592 69.5127 54.4045H79.4869Z" fill="#FFB09E"/>
<path d="M49.1318 22.0703C49.7486 22.5666 50.6277 22.5662 51.2443 22.0696L58.8268 15.9606C60.7574 14.4049 62.174 12.303 62.8908 9.92952C63.5117 7.87405 63.0883 5.64475 61.7568 3.96018C59.9137 1.62776 56.7332 0.825025 54.0039 2.00296C52.518 2.62014 51.3133 3.426 50.1826 4.44495C49.0566 3.42991 47.8521 2.6219 46.3613 2.00296C43.632 0.82483 40.4515 1.62776 38.6084 3.96018C37.2769 5.64475 36.8535 7.87405 37.4744 9.92952C38.1914 12.3032 39.6078 14.4051 41.5385 15.9606L49.1318 22.0703Z" fill="#EB5569"/>
<path d="M61.7567 3.96034C59.9136 1.62792 56.7331 0.825183 54.0038 2.00311C53.9456 2.02733 53.8905 2.0537 53.8331 2.0785C54.7423 2.50077 55.5636 3.13397 56.2167 3.96034C57.548 5.64491 57.9716 7.87421 57.3507 9.92967C56.6337 12.3033 55.2173 14.4053 53.2866 15.9607L47.4165 20.6902L49.1319 22.0705C49.7487 22.5668 50.6278 22.5664 51.2444 22.0697L58.8269 15.9607C60.7575 14.4053 62.1741 12.3031 62.8909 9.92967C63.5116 7.87421 63.088 5.64491 61.7567 3.96034Z" fill="#E53950"/>
<path d="M41.6606 83.0093H41.0622C37.8126 83.0093 35.1782 85.6437 35.1782 88.8933V98.5352H65.1862V88.8933C65.1862 85.6437 62.5519 83.0093 59.3022 83.0093H41.6606Z" fill="#F07281"/>
<path d="M59.3025 83.0093H54.4834C57.733 83.0093 60.3674 85.6437 60.3674 88.8933V98.5352H65.1865V88.8933C65.1863 85.6437 62.5521 83.0093 59.3025 83.0093Z" fill="#EB5569"/>
<path d="M50.1626 89.2064C47.3321 89.2064 45.0376 86.9119 45.0376 84.0814V71.748H55.2874V84.0814C55.2874 86.9119 52.9929 89.2064 50.1626 89.2064Z" fill="#FFB09E"/>
<path d="M45.0376 83.3517C46.5981 84.0552 48.3312 84.4503 50.1585 84.4503C51.989 84.4503 53.7249 84.0538 55.2874 83.3482V71.7482H45.0376V83.3517Z" fill="#FFA78F"/>
<path d="M68.4093 84.5814H70.9704V77.529C70.9704 73.4103 67.6315 70.0714 63.5128 70.0714H60.9517V77.1238C60.9517 81.2425 64.2905 84.5814 68.4093 84.5814Z" fill="#5A5A5A"/>
<path d="M63.5128 70.0714H60.9517V70.2859C64.2126 71.0827 66.6333 74.0224 66.6333 77.5288V84.3665C67.2026 84.5056 67.797 84.581 68.4093 84.581H70.9704V77.529C70.9704 73.4103 67.6315 70.0714 63.5128 70.0714Z" fill="#444444"/>
<path d="M31.8785 84.5814H29.3174V77.529C29.3174 73.4103 32.6563 70.0714 36.775 70.0714H39.3361V77.1238C39.3361 81.2425 35.9973 84.5814 31.8785 84.5814Z" fill="#5A5A5A"/>
<path d="M44.1257 71.748H37.7737C35.4546 71.748 33.5747 69.8679 33.5747 67.549C33.5747 65.2299 35.4548 63.35 37.7737 63.35H44.1257V71.748Z" fill="#FFB09E"/>
<path d="M56.1616 63.35H62.5136C64.8327 63.35 66.7126 65.2301 66.7126 67.549C66.7126 69.8681 64.8325 71.748 62.5136 71.748H56.1616V63.35Z" fill="#FFA78F"/>
<path d="M50.1587 53.0459C43.3376 53.0459 37.8081 58.5072 37.8081 65.2441V66.0688V69.8619C37.8081 76.5988 43.3376 82.0602 50.1587 82.0602C56.9798 82.0602 62.5093 76.5988 62.5093 69.8619V65.2439C62.5093 58.507 56.9798 53.0459 50.1587 53.0459Z" fill="#FFCEBF"/>
<path d="M50.1589 53.0459C49.5083 53.0459 48.8698 53.0963 48.2466 53.192C54.1595 54.0998 58.6849 59.1496 58.6849 65.2441V69.8619C58.6849 75.9562 54.1595 81.0061 48.2466 81.9139C48.8698 82.0096 49.5085 82.06 50.1589 82.06C56.98 82.06 62.5095 76.5986 62.5095 69.8619V65.2439C62.5095 58.507 56.98 53.0459 50.1589 53.0459Z" fill="#FFB09E"/>
<path d="M43.6762 74.2676H41.5604C40.9268 74.2676 40.4131 73.7541 40.4131 73.1203C40.4131 72.4867 40.9266 71.973 41.5604 71.973H43.6762C44.3098 71.973 44.8234 72.4865 44.8234 73.1203C44.8234 73.7541 44.31 74.2676 43.6762 74.2676Z" fill="#FE8F83"/>
<path d="M58.8046 74.2676H56.6888C56.0552 74.2676 55.5415 73.7541 55.5415 73.1203C55.5415 72.4867 56.055 71.973 56.6888 71.973H58.8046C59.4382 71.973 59.9519 72.4865 59.9519 73.1203C59.9519 73.7541 59.4384 74.2676 58.8046 74.2676Z" fill="#FE8F83"/>
<path d="M51.4535 45.9238C50.7305 45.9238 50.1441 46.51 50.1441 47.233C50.1441 46.51 49.5578 45.9238 48.8348 45.9238C41.0312 45.9238 34.7051 52.2498 34.7051 60.0535V63.3502H42.9502C46.9232 63.3502 50.1441 60.1295 50.1441 56.1565C50.1443 60.1295 53.365 63.3502 57.3381 63.3502H65.5832V60.0535C65.583 52.2498 59.257 45.9238 51.4535 45.9238Z" fill="#5A5A5A"/>
<path d="M51.4531 45.9237C51.0779 45.9237 50.7406 46.0823 50.502 46.335C56.6697 47.8524 61.2455 53.4173 61.2455 60.0534V63.3501H65.5828V60.0534C65.5826 52.2497 59.2566 45.9237 51.4531 45.9237Z" fill="#444444"/>
<path d="M80.9041 72.372L74.0643 74.0718L74.46 73.0588C74.681 72.4929 74.5008 71.849 74.0183 71.48C73.374 70.9873 72.4447 71.1627 72.0244 71.8564L69.3818 76.2172C69.1658 76.524 68.9912 76.8631 68.8695 77.2287L61.7812 98.5355H70.5379L73.7447 82.1103L81.7418 73.8238C81.8986 73.6613 81.9863 73.4443 81.9863 73.2183C81.9861 72.6513 81.4541 72.2353 80.9041 72.372Z" fill="#FFCEBF"/>
<path d="M80.9038 72.372L78.6159 72.9406C78.645 73.0275 78.6618 73.1202 78.6618 73.2181C78.6618 73.4439 78.5741 73.6611 78.4173 73.8236L70.4202 82.1101L67.2134 98.5353H70.5374L73.7442 82.1101L81.7413 73.8236C81.8981 73.6611 81.9858 73.4441 81.9858 73.2181C81.9858 72.6513 81.4538 72.2353 80.9038 72.372Z" fill="#FFB09E"/>
<path d="M30.3201 76.2169L27.6775 71.8562C27.2572 71.1626 26.3277 70.9872 25.6836 71.4798C25.201 71.8489 25.0209 72.4927 25.242 73.0585L25.6377 74.0716L18.7979 72.3718C18.2479 72.2351 17.7158 72.6513 17.7158 73.2179C17.7158 73.4437 17.8035 73.6608 17.9604 73.8233L25.9574 82.1099L29.1643 98.5351H37.9209L30.8326 77.2282C30.7107 76.8628 30.5361 76.5237 30.3201 76.2169Z" fill="#FFCEBF"/>
<path d="M82.7456 50.59C83.5548 50.59 84.2105 49.9341 84.2105 49.125V47.4733C84.9599 47.4087 85.548 46.7799 85.548 46.0138C85.548 45.2047 84.8923 44.5487 84.0831 44.5487H82.7456C81.9364 44.5487 81.2808 45.2047 81.2808 46.0138V49.125C81.2808 49.9341 81.9364 50.59 82.7456 50.59Z" fill="black"/>
<path d="M66.2545 44.5485H64.917C64.1078 44.5485 63.4521 45.2044 63.4521 46.0135C63.4521 46.7796 64.0402 47.4086 64.7896 47.4731V49.1247C64.7896 49.9338 65.4453 50.5898 66.2545 50.5898C67.0637 50.5898 67.7193 49.9338 67.7193 49.1247V46.0135C67.7193 45.2044 67.0637 44.5485 66.2545 44.5485Z" fill="black"/>
<path d="M68.0483 54.4045C68.0483 57.9622 70.9427 60.8565 74.5003 60.8565C78.0579 60.8565 80.9521 57.9622 80.9521 54.4045C80.9521 53.5956 80.2964 52.9397 79.4872 52.9397H69.5132C68.704 52.9397 68.0483 53.5956 68.0483 54.4045ZM77.703 55.8694C77.146 57.0823 75.9198 57.9268 74.5003 57.9268C73.0804 57.9268 71.8542 57.0823 71.2974 55.8694H77.703Z" fill="black"/>
<path d="M16.8071 43.8151C15.9979 43.8151 15.3423 44.471 15.3423 45.2801V48.3079C15.3423 49.117 15.9979 49.7729 16.8071 49.7729C17.6163 49.7729 18.272 49.117 18.272 48.3079V45.2801C18.272 44.471 17.6163 43.8151 16.8071 43.8151Z" fill="black"/>
<path d="M32.856 49.7729C33.6651 49.7729 34.3208 49.117 34.3208 48.3079V45.2801C34.3208 44.471 33.6651 43.8151 32.856 43.8151C32.0468 43.8151 31.3911 44.471 31.3911 45.2801V48.3079C31.3911 49.1172 32.047 49.7729 32.856 49.7729Z" fill="black"/>
<path d="M24.9764 59.591C28.534 59.591 31.4281 56.6967 31.4281 53.139C31.4281 52.3301 30.7725 51.6742 29.9633 51.6742H19.9893C19.1801 51.6742 18.5244 52.3301 18.5244 53.139C18.5244 56.6968 21.4189 59.591 24.9764 59.591ZM28.1793 54.6041C27.6223 55.817 26.3961 56.6615 24.9766 56.6615C23.5566 56.6615 22.3305 55.817 21.7736 54.6041H28.1793Z" fill="black"/>
<path d="M40.6199 17.102L48.2133 23.2116C49.3682 24.1405 51.0143 24.136 52.1629 23.2102L59.7455 17.1012C61.9147 15.3534 63.4871 13.02 64.2926 10.353C65.0594 7.81371 64.5135 5.08676 62.9055 3.0518C60.5871 0.118401 56.6824 -0.744099 53.4324 0.653948C52.2539 1.14438 51.1987 1.75395 50.1821 2.53735C48.361 1.13403 46.0522 4.12962e-05 43.7612 4.12962e-05C41.2883 4.12962e-05 38.991 1.11235 37.4586 3.0518C35.8719 5.05922 35.2946 7.78168 36.0713 10.353C36.8774 13.0202 38.4498 15.3536 40.6199 17.102ZM39.7574 4.8686C40.7309 3.63656 42.1903 2.93012 43.7613 2.93012C45.6746 2.93012 47.7809 4.25297 49.2016 5.53344C49.759 6.03559 50.6057 6.03559 51.1631 5.53344C52.236 4.56625 53.317 3.87446 54.5653 3.3561C54.5715 3.35356 54.5778 3.35102 54.5842 3.34809C56.6703 2.4477 59.1463 3.01996 60.6072 4.8686C63.2186 8.17328 60.5865 12.6614 57.9076 14.8202C49.7537 21.3893 50.2485 21.0889 50.05 20.9291L42.4571 14.8202C39.8533 12.7223 37.0848 8.24946 39.7574 4.8686Z" fill="black"/>
<path d="M92.7034 68.1798C94.2861 66.2316 95.1831 63.7802 95.1831 61.2093C95.1831 58.4513 94.1353 55.7839 92.2867 53.7558C92.3099 53.6634 92.3329 53.5709 92.3546 53.4779C95.8718 53.0076 98.5942 49.9894 98.5942 46.3455C98.5942 43.7652 97.2288 41.4988 95.1831 40.2279V38.2756C95.1831 37.4666 94.5275 36.8108 93.7183 36.8108C92.9091 36.8108 92.2534 37.4666 92.2534 38.2756V39.1475C91.8292 39.1475 91.5615 39.1475 91.1408 39.1475H75.0309C69.9395 39.1475 65.5872 35.5418 64.5668 30.6401C64.5627 30.6206 64.5586 30.601 64.5547 30.5813C63.4493 25.1145 67.102 21.1761 71.6254 21.1761H76.8521C83.6183 21.1761 89.5246 25.5092 91.5493 31.9584C91.7915 32.7303 92.6142 33.1594 93.3855 32.9172C94.1573 32.6748 94.5866 31.8528 94.3443 31.0809C93.2007 27.4381 90.8771 24.1686 87.8017 21.8749C84.6191 19.5011 80.8328 18.2464 76.852 18.2464H71.6252C71.0209 18.2464 70.4299 18.3022 69.8541 18.4032C60.3381 19.621 53.1667 27.7739 53.1667 37.3852V40.6121C53.1667 40.6373 53.1692 40.6617 53.1704 40.6865C51.938 41.6545 51.0247 43.0158 50.6278 44.5846C50.4589 44.6373 50.2968 44.7051 50.1433 44.7877C49.4157 44.3965 48.8099 44.4572 48.3599 44.4707C48.0853 42.7754 47.2036 41.2818 45.9456 40.2197C45.9484 40.1992 45.9523 40.1791 45.9542 40.1582L46.8792 30.1473C47.2048 26.6268 45.1622 23.3159 41.8558 21.8819C40.1521 18.3601 36.6084 16.1187 32.656 16.1187H19.3809C15.2401 16.1187 11.6176 18.3704 9.66686 21.7122C6.09402 23.0059 3.7954 26.4692 4.13817 30.1764L5.00086 39.5111C2.90341 40.7318 1.48936 43.0031 1.48936 45.6C1.48936 49.1467 4.12548 52.0879 7.54109 52.5705C8.72839 57.7105 12.1506 62.0046 16.7246 64.3714V66.2607L13.4315 67.8474C13.2575 67.9312 13.0989 68.0378 12.9557 68.1606H9.39636C4.99032 68.1606 1.40576 71.7454 1.40576 76.1514V89.6592C1.40576 90.4682 2.06142 91.124 2.8706 91.124H15.7551C16.5643 91.124 17.22 90.4682 17.22 89.6592C17.22 88.8502 16.5643 88.1944 15.7551 88.1944H4.33544V76.1514C4.33544 73.3608 6.60574 71.0903 9.39636 71.0903H12.5981C12.7911 71.3618 12.702 71.247 18.4586 76.6538C18.6307 76.8149 18.8356 76.9489 19.0268 77.0384L24.6023 82.8159L25.6523 88.1944H22.594C21.7848 88.1944 21.1291 88.8502 21.1291 89.6592C21.1291 90.4682 21.7848 91.124 22.594 91.124H26.2242L27.726 98.816C27.8603 99.5037 28.4629 100 29.1637 100H70.5369C71.2377 100 71.8404 99.5037 71.9746 98.816L73.4764 91.124H96.6638C97.473 91.124 98.1286 90.4682 98.1286 89.6592V76.0891C98.1288 72.4897 95.8739 69.4089 92.7034 68.1798ZM73.191 69.7347C73.109 69.7347 73.0277 69.7394 72.9471 69.7462C72.9324 69.7474 72.918 69.7489 72.9033 69.7505C72.1238 69.8282 71.4227 70.2188 70.9479 70.8399C70.9412 70.8485 70.9348 70.8575 70.9283 70.8661C70.8729 70.9403 70.8197 71.0167 70.7709 71.0972L70.3477 71.7954C70.0086 71.3905 69.6348 71.0183 69.2309 70.681C68.9299 69.6897 68.9914 69.1909 68.9914 66.7808C71.1879 67.4745 73.5543 67.7396 75.8346 67.5755C77.2045 67.4782 78.6723 67.2099 80.0603 66.7677C80.0603 69.2165 80.1519 69.9343 79.6447 71.1755L77.5428 71.6979L75.9766 72.0872C75.9172 71.7438 75.7939 71.4145 75.617 71.1167C75.4891 70.8813 75.1047 70.4741 74.885 70.3007C74.3916 69.9308 73.8068 69.7347 73.191 69.7347ZM60.7241 97.0705H38.9769L36.7439 90.3582L36.6427 90.0541V88.8934C36.6427 86.4567 38.6251 84.4745 41.0619 84.4745H43.5843C43.7982 88.0975 46.9091 90.842 50.4952 90.6629C53.8468 90.4949 56.5438 87.8076 56.7407 84.4745H59.302C61.4762 84.4745 63.3418 86.0979 63.6686 88.2198L62.8028 90.8223L60.7241 97.0705ZM18.0696 68.8646L22.3746 71.7516L19.1506 70.9505C18.4227 70.7696 17.6672 70.9569 17.1328 71.3893L15.6737 70.0188L18.0696 68.8646ZM50.1435 60.9702C51.6989 63.287 54.3432 64.815 57.3374 64.815H61.0352C61.0352 64.8167 61.0354 64.8185 61.0354 64.8202C61.0413 64.9618 61.044 65.1032 61.044 65.2443C61.044 70.2649 61.077 70.4145 60.9278 71.4214C60.9235 71.4501 60.9204 71.479 60.9159 71.5075C60.1006 76.713 55.5153 80.5952 50.1581 80.5952C44.8284 80.5952 40.2208 76.7428 39.4003 71.5075C39.2353 70.4501 39.2722 70.2255 39.2722 65.2441C39.2722 65.103 39.2751 64.9618 39.2808 64.8202C39.2808 64.8185 39.281 64.8165 39.2812 64.8148H42.9492C45.9437 64.815 48.5878 63.287 50.1435 60.9702ZM53.7009 44.623C54.1792 43.5449 55.0919 42.7033 56.2071 42.3139C56.1661 43.0061 56.1747 43.4365 56.1747 45.1881C55.4524 44.959 54.5421 44.7447 53.7009 44.623ZM67.4789 76.7661L65.5985 82.4188C63.6743 81.3975 62.4161 79.3762 62.4161 77.1239V76.1677C62.9254 75.2018 63.3213 74.1602 63.5799 73.1114C64.4032 72.9556 65.235 72.594 65.9432 72.0559C66.3692 72.2464 66.7549 72.4749 67.1061 72.7388C67.1063 72.739 67.1065 72.7389 67.1067 72.7391C67.7149 73.1962 68.2274 73.7628 68.6211 74.402C68.6373 74.4288 68.6553 74.4542 68.6713 74.4811C68.6795 74.495 68.6867 74.5097 68.6949 74.5237C67.8856 75.8583 67.7174 76.0485 67.4789 76.7661ZM53.8225 84.0817C53.8225 86.0998 52.1806 87.7416 50.1624 87.7416C48.1442 87.7416 46.5025 86.0998 46.5025 84.0817V83.0399C48.9372 83.7026 51.5183 83.6665 53.8225 83.0377V84.0817ZM31.3215 75.0432C31.9736 73.6409 33.0511 72.629 34.3416 72.054C35.0193 72.5692 35.8429 72.9511 36.7386 73.1171C36.9888 74.1282 37.3705 75.1477 37.8708 76.1081V77.1239C37.8708 79.5848 36.3775 81.7463 34.182 82.6573C31.7392 75.3145 32.2558 76.5852 31.3215 75.0432ZM36.3429 65.2441V69.8749C35.5931 69.4144 35.1537 68.6583 35.0611 67.8735C35.0603 67.8663 35.0582 67.8593 35.0572 67.8521C34.9371 66.7657 35.4644 65.7612 36.3431 65.2198C36.3429 65.2278 36.3429 65.2359 36.3429 65.2441ZM32.3121 69.0478C32.3717 69.2645 32.4437 69.4763 32.5275 69.6819C31.3478 70.32 30.3451 71.2194 29.607 72.2143L28.9299 71.097C28.9158 71.0737 28.9002 71.0517 28.8855 71.0288C28.8672 71.0005 28.8496 70.9716 28.8305 70.9442L31.9314 68.8646L32.3121 69.0478ZM40.4562 79.5772C41.2226 80.3258 42.0757 80.9881 43.0011 81.5446C40.9142 81.5446 40.4644 81.5079 39.5335 81.7055C39.9292 81.0448 40.2412 80.3303 40.4562 79.5772ZM63.9737 65.2384C64.7387 65.7235 65.2475 66.578 65.2475 67.5493C65.2475 68.4245 64.81 69.327 63.9737 69.856V65.2441C63.9737 65.2423 63.9737 65.2403 63.9737 65.2384ZM59.8374 79.5989C60.0499 80.3344 60.3538 81.0344 60.7397 81.6834C60.2747 81.5928 59.794 81.5446 59.3018 81.5446H57.3153C58.2317 80.9936 59.0766 80.3385 59.8374 79.5989ZM82.9902 65.5448C86.5714 63.6737 89.4218 60.6822 91.1169 57.0542C91.8587 58.2947 92.2533 59.716 92.2533 61.2093C92.2533 63.715 91.0976 66.0698 89.1378 67.6079H82.99L82.9902 65.5448ZM92.805 50.375C92.8626 49.415 92.8616 43.275 92.8046 42.3158C94.4683 42.899 95.6646 44.4851 95.6646 46.3453C95.6644 48.2054 94.4683 49.7916 92.805 50.375ZM89.8492 42.0771C89.9003 42.6844 90.0382 49.6842 89.7122 51.7314C89.5966 52.4554 89.4318 53.1634 89.2187 53.8503C89.2046 53.8955 89.1884 53.9398 89.174 53.9847C87.1625 60.2587 81.2918 64.6943 74.5057 64.6943C71.8565 64.6943 69.2871 64.012 67.0471 62.7687C67.0471 59.9255 67.0547 59.78 67.0215 59.1828C66.7307 53.8351 63.7745 49.0859 59.1042 46.4631C59.1042 43.2807 59.0854 42.9799 59.162 42.0771C62.084 42.0771 65.0205 41.3738 67.691 39.932C69.9447 41.3803 72.4832 42.0771 75.0305 42.0771H89.8492ZM56.0964 39.1475V37.3854C56.0964 32.3569 58.4133 27.7997 62.084 24.8071C61.5387 26.2337 61.3571 27.6706 61.4299 29.151C61.4313 29.1792 61.4344 29.2067 61.436 29.2348C61.6176 32.5174 62.9473 35.5547 65.1996 37.8887C61.9045 39.3317 59.5866 39.1475 56.0964 39.1475ZM50.1437 48.6978C50.8997 48.6978 51.522 48.1248 51.6001 47.3894C51.6774 47.3904 51.7536 47.3957 51.8306 47.3978C51.8347 47.398 51.8388 47.3986 51.8429 47.3988C58.4354 47.5982 63.7315 52.8392 64.0959 59.3363C64.0983 59.38 64.1008 59.4238 64.1028 59.4675C64.1118 59.6618 64.1176 59.8568 64.1176 60.0533V61.8851C57.4411 61.8851 56.0216 62.18 54.1364 60.9054C52.6122 59.8749 51.6083 58.1306 51.6083 56.1562C51.6083 55.3472 50.9526 54.6914 50.1435 54.6914C49.3345 54.6914 48.6786 55.3472 48.6786 56.1562C48.6786 57.9331 47.8653 59.5238 46.5915 60.5753C46.5208 60.6337 46.4486 60.6906 46.3751 60.7456C46.228 60.8558 46.0755 60.9589 45.9179 61.0546C45.0517 61.5816 44.0355 61.8853 42.9495 61.8853C41.5579 61.8853 37.6867 61.8853 36.1693 61.8853C36.1693 60.8101 36.1693 61.0816 36.1693 60.0535C36.1693 53.1359 41.757 47.4687 48.6868 47.3896C48.7649 48.125 49.3874 48.6978 50.1437 48.6978ZM42.8663 45.6435C42.8663 42.6037 42.8728 42.3268 42.8443 41.7463C44.1738 42.2426 45.1796 43.408 45.4501 44.8308C44.6679 45.0031 43.7351 45.2832 42.8663 45.6435ZM19.3809 19.0485H32.6566C35.6308 19.0485 38.2808 20.828 39.408 23.5821C39.5671 23.971 39.8855 24.2727 40.2824 24.4108C42.6701 25.2415 44.1835 27.4897 43.9626 29.878L43.1605 38.5588C21.7264 38.5588 21.632 38.7719 19.3824 38.183C16.5159 37.4287 14.0545 35.5602 12.535 32.8981C12.535 32.8979 12.5348 32.8977 12.5346 32.8977C11.8153 31.6375 11.3504 30.2463 11.1626 28.8112C11.1622 28.8083 11.1618 28.8053 11.1614 28.8026C10.4182 23.0821 14.6618 19.0485 19.3809 19.0485ZM8.19519 26.2165C7.96199 28.5379 8.42683 31.2268 9.57096 33.5635C8.79304 34.8713 8.18015 36.3024 7.77644 37.7141L7.05496 29.9071C6.92996 28.5524 7.36511 27.2454 8.19519 26.2165ZM4.41884 45.6002C4.41884 43.8186 5.55848 42.3109 7.10886 41.7436C7.07859 42.3404 7.10125 49.3107 7.10847 49.4584C5.53993 48.8783 4.41884 47.3678 4.41884 45.6002ZM10.0159 48.5664V42.634C10.0159 40.5092 10.4928 38.3209 11.3934 36.384C13.1733 38.5404 15.5844 40.141 18.3237 40.9279C18.3571 40.9375 18.3905 40.9471 18.4239 40.9565C20.9643 41.666 20.836 41.4887 39.8915 41.4887C39.9501 42.2514 39.9365 42.158 39.9365 47.2471C35.7084 50.1806 33.2394 54.9244 33.2394 60.0535V60.9786C31.7713 61.9472 30.0726 62.6833 28.2715 63.0773C28.2107 63.0905 28.1496 63.1017 28.0889 63.1142C26.8912 63.3601 25.9082 63.42 24.8691 63.42C16.6647 63.4198 10.0159 56.7374 10.0159 48.5664ZM21.3076 65.9909C22.2674 66.186 23.2692 66.3062 24.2828 66.3388C26.382 66.4071 28.3633 66.1737 30.3471 65.5583V66.3995L25.0006 69.9853L19.6539 66.3995V65.573C20.1848 65.736 20.7231 65.8704 21.2662 65.9823C21.2801 65.9853 21.2938 65.9882 21.3076 65.9909ZM35.1779 97.0705H30.3705L27.3949 81.8295C27.3408 81.5522 27.2074 81.2963 27.0111 81.093C26.3502 80.4083 21.1096 74.9776 20.4475 74.2917C23.4772 75.0446 20.6264 74.3362 25.2842 75.4936C26.3779 75.7653 27.3473 74.7518 27.0449 73.6764C27.0389 73.6548 27.0352 73.6327 27.0279 73.6112C28.7 76.3706 28.2684 75.6581 29.0672 76.9764C29.0846 77.0051 29.1031 77.0333 29.1223 77.0608C29.2609 77.2575 29.3685 77.4696 29.4424 77.6913L35.8894 97.0709H35.1779V97.0705ZM69.3305 97.0705H63.8116L70.2586 77.6913C70.3524 77.4092 70.1608 77.7565 72.6731 73.6112C72.3115 74.7026 73.2963 75.7714 74.4168 75.4934L79.2537 74.2915L72.6899 81.0928C72.4936 81.2962 72.3602 81.552 72.3061 81.8294L69.3305 97.0705ZM74.0486 88.1944L75.0986 82.8159L82.7945 74.8415C83.348 74.2682 83.5937 73.435 83.3634 72.5956C83.3556 72.5677 83.3492 72.5393 83.3406 72.5118C83.2195 72.1274 82.9754 71.7405 82.6482 71.4561C82.7302 71.1755 82.8306 70.7177 82.8625 70.5378H88.082V88.1946H74.0486V88.1944ZM95.1991 88.1944H91.0117V70.7077C93.4154 71.3173 95.1991 73.4987 95.1991 76.0893V88.1944Z" fill="black"/>
<path d="M50.182 78.3453C52.6484 78.3453 54.6551 76.2812 54.6551 73.7441C54.6551 72.935 53.9994 72.2791 53.1902 72.2791C52.3811 72.2791 51.7254 72.935 51.7254 73.7441C51.7254 74.6655 51.033 75.4152 50.182 75.4152C49.3311 75.4152 48.6387 74.6655 48.6387 73.7441C48.6387 72.935 47.983 72.2791 47.1738 72.2791C46.3646 72.2791 45.709 72.935 45.709 73.7441C45.709 76.2814 47.7156 78.3453 50.182 78.3453Z" fill="black"/>
<path d="M55.9683 71.0908C56.7774 71.0908 57.4331 70.4349 57.4331 69.6258V69.2009C57.997 68.997 58.3999 68.4569 58.3999 67.8226C58.3999 67.0135 57.7442 66.3575 56.9351 66.3575H55.9683C55.1591 66.3575 54.5034 67.0135 54.5034 67.8226V69.6256C54.5034 70.4349 55.1593 71.0908 55.9683 71.0908Z" fill="black"/>
<path d="M41.9639 67.8228C41.9639 68.4571 42.3668 68.997 42.9305 69.201V69.6258C42.9305 70.4349 43.5861 71.0909 44.3953 71.0909C45.2045 71.0909 45.8602 70.4349 45.8602 69.6258V67.8228C45.8602 67.0137 45.2045 66.3578 44.3953 66.3578H43.4287C42.6195 66.3578 41.9639 67.0137 41.9639 67.8228Z" fill="black"/>
</g>
<defs>
<clipPath id="clip0">
<rect width="100" height="100" fill="white"/>
</clipPath>
</defs>
</svg>
