<svg width="100" height="100" viewBox="0 0 100 100" fill="none" xmlns="http://www.w3.org/2000/svg">
<g clip-path="url(#clip0)">
<path d="M77.3443 77.7994V63.1989C77.3443 55.3506 71.7991 48.5959 64.1013 47.0672L60.0247 46.2576C57.3173 45.7199 55.1265 43.7342 54.3261 41.0924H45.6749C44.8745 43.734 42.6837 45.7199 39.9763 46.2576L35.8997 47.0672C28.2019 48.5961 22.6567 55.3508 22.6567 63.1989V77.7994H77.3443Z" fill="#65CCBB"/>
<path d="M41.8423 45.6869C43.3325 48.6842 46.4259 50.744 50.0003 50.744C53.5749 50.744 56.6684 48.684 58.1587 45.6863L58.188 45.6358C56.3516 44.7346 54.9352 43.1041 54.3259 41.0924H45.6747C45.0612 43.1176 43.63 44.7563 41.7759 45.6535L41.8423 45.6869Z" fill="#FFDCD5"/>
<path d="M50.0004 41.6387C40.4625 41.6387 32.7307 33.9068 32.7307 24.3689V19.2229C32.7307 9.68496 40.4625 1.95312 50.0002 1.95312C59.5381 1.95312 67.27 9.68496 67.27 19.2229V24.3689C67.2702 33.9066 59.5381 41.6387 50.0004 41.6387Z" fill="#FFDCD5"/>
<path d="M33.7118 19.9639C44.1356 19.9639 52.8108 12.4775 54.654 2.58809C53.1735 2.1748 51.6129 1.95312 50.0004 1.95312C40.4626 1.95312 32.7307 9.68496 32.7307 19.2229V19.9635C33.3038 19.9639 33.6629 19.9639 33.7118 19.9639Z" fill="#6D92AC"/>
<path d="M66.2889 19.9639C55.865 19.9639 47.1898 12.4775 45.3467 2.58809C46.8273 2.1748 48.3879 1.95312 50.0004 1.95312C59.5383 1.95312 67.2701 9.68496 67.2701 19.2229V19.9635C66.6971 19.9639 66.3377 19.9639 66.2889 19.9639Z" fill="#6D92AC"/>
<path d="M17.4568 30.5743L22.0711 29.3379L20.8347 33.952C23.9424 34.2733 27.1625 33.2461 29.5439 30.8647C32.6369 27.7717 33.448 23.2639 31.9834 19.4256C28.1451 17.961 23.6373 18.7721 20.5443 21.8651C18.1627 24.2463 17.1355 27.4667 17.4568 30.5743Z" fill="#6D92AC"/>
<path d="M82.5436 30.5743L77.9294 29.3379L79.1657 33.952C76.0581 34.2733 72.838 33.2461 70.4565 30.8647C67.3635 27.7717 66.5524 23.2639 68.0171 19.4256C71.8554 17.961 76.3632 18.7721 79.4561 21.8651C81.8378 24.2463 82.8649 27.4667 82.5436 30.5743Z" fill="#6D92AC"/>
<path d="M1.998 82.5458L15.1187 69.4251C19.5226 65.0212 25.4955 62.5471 31.7234 62.5471C36.0835 62.5471 40.265 64.2792 43.3482 67.3622H56.1566C59.1339 67.3622 61.5476 69.7758 61.5476 72.7532C61.5476 75.7305 59.1339 78.1442 56.1566 78.1442H41.3091H46.8755H56.5531C64.866 78.1442 72.7976 74.6561 78.4162 68.5296L88.3927 57.651C90.3029 55.568 93.4759 55.2598 95.7515 56.936C98.4152 58.8981 98.7728 62.7436 96.5168 65.1633L83.8652 78.7327C77.0253 86.0686 67.4461 90.2342 57.4164 90.2342H30.5753L22.7626 98.0469H1.9978L1.998 82.5458Z" fill="#FFD0C7"/>
<path d="M53.4764 32.7908C54.239 32.0281 54.239 30.7914 53.4762 30.0287C52.7137 29.266 51.4767 29.266 50.714 30.0287C50.4728 30.2701 50.1908 30.306 50.0443 30.306C49.8978 30.306 49.616 30.2699 49.3746 30.0287C48.6121 29.266 47.3756 29.266 46.6125 30.0287C45.8496 30.7914 45.8496 32.0281 46.6123 32.7908C47.5289 33.7076 48.7478 34.2125 50.0441 34.2125C51.3404 34.2125 52.5597 33.7076 53.4764 32.7908Z" fill="#021C1E"/>
<path d="M48.6271 88.2812H30.5753C30.0573 88.2812 29.5606 88.4871 29.1942 88.8533L21.3813 96.666C20.6187 97.4287 20.6187 98.6654 21.3813 99.4281C21.7628 99.8096 22.2626 100 22.7624 100C23.2622 100 23.762 99.8094 24.1435 99.4281L31.3845 92.1875H48.6271C49.7056 92.1875 50.5802 91.3131 50.5802 90.2344C50.5802 89.1557 49.7056 88.2812 48.6271 88.2812Z" fill="#021C1E"/>
<path d="M99.9235 60.6971C99.7259 58.5729 98.6273 56.6287 96.9095 55.3635C93.8237 53.0904 89.5433 53.5063 86.9528 56.3311L79.297 64.6793V63.1988C79.297 54.4463 73.0661 46.8563 64.4815 45.1514L60.405 44.3416C59.0478 44.0721 57.8712 43.3135 57.0681 42.2453C62.1198 40.241 66.1265 36.1543 68.0245 31.0504C68.3474 31.4668 68.6968 31.867 69.0755 32.2457C71.4755 34.6455 74.6855 35.9633 78.0407 35.9633C78.4806 35.9633 78.9231 35.9406 79.3665 35.8947C79.9355 35.8359 80.4499 35.5307 80.7743 35.0598C81.0987 34.5887 81.2003 33.999 81.0523 33.4465L80.6913 32.1L82.0382 32.4607C82.5901 32.6088 83.1804 32.5074 83.6513 32.1828C84.1224 31.8584 84.4276 31.3439 84.4864 30.775C84.8817 26.9492 83.5517 23.1984 80.8372 20.484C77.7442 17.391 73.2966 16.1377 69.1013 17.067C68.0263 7.47871 59.8708 0 50.0001 0C40.1294 0 31.9739 7.47871 30.8989 17.067C26.7036 16.1377 22.256 17.3908 19.163 20.484C16.4485 23.1986 15.1185 26.9496 15.514 30.775C15.573 31.3439 15.878 31.8584 16.3491 32.1828C16.82 32.5072 17.4097 32.6086 17.9622 32.4607L19.3089 32.1L18.948 33.4465C18.7999 33.999 18.9015 34.5887 19.2259 35.0598C19.5503 35.5309 20.0647 35.8361 20.6337 35.8947C21.0772 35.9406 21.5194 35.9633 21.9597 35.9633C25.3149 35.9631 28.5251 34.6453 30.9247 32.2457C31.3034 31.867 31.6528 31.4668 31.9757 31.0504C33.8739 36.1543 37.8806 40.241 42.9323 42.2453C42.1292 43.3135 40.9526 44.0721 39.5956 44.3416L35.519 45.1514C26.9696 46.8492 20.7569 54.3842 20.7058 63.0908C18.1536 64.319 15.7995 65.982 13.7376 68.0438L0.616699 81.1646C-0.145996 81.9273 -0.145996 83.1641 0.616699 83.9268C0.998145 84.3082 1.49795 84.4988 1.99775 84.4988C2.49756 84.4988 2.99736 84.3082 3.37881 83.9268L16.4995 70.8061C20.5657 66.7397 25.9724 64.5002 31.7231 64.5002C35.5929 64.5002 39.2306 66.007 41.9667 68.7434C42.3331 69.1096 42.8298 69.3154 43.3478 69.3154H56.156C58.0517 69.3154 59.5941 70.8576 59.5941 72.7533C59.5941 74.649 58.0519 76.1912 56.156 76.1912H41.3085C40.23 76.1912 39.3554 77.0656 39.3554 78.1443C39.3554 79.2231 40.23 80.0975 41.3085 80.0975H56.5524C65.389 80.0975 73.8825 76.3623 79.8552 69.8498L89.8316 58.9713C91.0702 57.6207 93.1171 57.4219 94.5927 58.5088C95.4261 59.1227 95.938 60.0283 96.0337 61.059C96.1296 62.0899 95.7937 63.0744 95.0876 63.8316L82.436 77.401C77.9087 82.2567 72.1103 85.6697 65.6677 87.2715C64.6208 87.5318 63.9831 88.5912 64.2433 89.6381C64.4644 90.5268 65.2612 91.1205 66.1372 91.1205C66.2933 91.1205 66.4517 91.1016 66.6099 91.0623C73.7884 89.2777 80.2489 85.475 85.2933 80.0648L97.9448 66.4955C99.4001 64.9348 100.121 62.8215 99.9235 60.6971ZM69.5657 20.974C72.581 20.1633 75.8398 21.0104 78.0751 23.2461C79.3888 24.5596 80.2339 26.2242 80.53 28.0125L78.4347 27.4512C77.7603 27.2701 77.0415 27.4635 76.5481 27.9566C76.0548 28.45 75.862 29.1691 76.0427 29.8434L76.604 31.9385C74.8159 31.6422 73.1509 30.7971 71.8376 29.4838C69.6021 27.2479 68.7548 23.9893 69.5657 20.974ZM65.2573 17.9199C60.5458 17.4813 56.0845 15.4408 52.6702 12.1443C54.1577 10.0563 55.3116 7.70274 56.0489 5.15391C61.1149 7.34024 64.7716 12.1846 65.2573 17.9199ZM50.0001 3.90625C50.7788 3.90625 51.5439 3.96563 52.2917 4.07832C50.0146 11.9299 42.978 17.5477 34.7382 17.9811C35.3729 10.1147 41.9731 3.90625 50.0001 3.90625ZM28.1626 29.4836C26.8491 30.7971 25.1847 31.6422 23.3962 31.9383L23.9575 29.8432C24.1382 29.1691 23.9454 28.45 23.4521 27.9564C23.081 27.5854 22.5821 27.3844 22.0708 27.3844C21.9024 27.3844 21.7327 27.4061 21.5655 27.451L19.4704 28.0123C19.7665 26.224 20.6116 24.5594 21.9251 23.2459C24.1608 21.01 27.4204 20.1631 30.4347 20.9738C31.2458 23.9893 30.3983 27.2479 28.1626 29.4836ZM34.6835 24.3689V21.8963C40.6548 21.6492 46.1171 19.1354 50.1405 15.1277C54.271 19.0342 59.6538 21.416 65.3167 21.8459V24.3689C65.3167 32.8145 58.4456 39.6856 50.0001 39.6856C41.5546 39.6856 34.6835 32.8145 34.6835 24.3689ZM50.0001 43.5916C51.072 43.5916 52.1231 43.502 53.1478 43.3324C53.7368 44.4482 54.5388 45.4238 55.4995 46.2121C54.1595 47.8307 52.1689 48.7906 50.0003 48.7906C47.8317 48.7906 45.8411 47.8307 44.5013 46.2121C45.462 45.4238 46.264 44.4482 46.853 43.3324C47.8772 43.5022 48.9284 43.5916 50.0001 43.5916ZM56.1564 65.4092H44.1315C40.7341 62.2979 36.3597 60.5942 31.7235 60.5942C29.3153 60.5942 26.9587 60.9281 24.705 61.5713C25.4069 55.3822 30.0565 50.219 36.2802 48.983L40.3567 48.1733C40.5646 48.132 40.7698 48.0834 40.9726 48.0289C43.0261 50.9436 46.3519 52.6971 50.0003 52.6971C53.6489 52.6971 56.9747 50.9436 59.0282 48.0289C59.231 48.0834 59.4362 48.132 59.6441 48.1733L63.7206 48.983C70.4827 50.3258 75.3907 56.3045 75.3907 63.1988V68.8016C71.8862 72.0465 67.6021 74.3225 62.994 75.4279C63.3196 74.5984 63.5005 73.6969 63.5005 72.7533C63.5005 68.7037 60.206 65.4092 56.1564 65.4092Z" fill="#021C1E"/>
<path d="M57.4158 88.2812C56.9019 88.2812 56.3982 88.4902 56.0349 88.8535C55.6716 89.2168 55.4626 89.7207 55.4626 90.2344C55.4626 90.748 55.6714 91.252 56.0349 91.6152C56.3984 91.9785 56.9019 92.1875 57.4158 92.1875C57.9294 92.1875 58.4333 91.9785 58.7964 91.6152C59.1597 91.252 59.3689 90.748 59.3689 90.2344C59.3689 89.7207 59.1599 89.2168 58.7964 88.8535C58.4333 88.4902 57.9294 88.2812 57.4158 88.2812Z" fill="#021C1E"/>
</g>
<defs>
<clipPath id="clip0">
<rect width="100" height="100" fill="white"/>
</clipPath>
</defs>
</svg>
