<svg width="51" height="51" viewBox="0 0 51 51" fill="none" xmlns="http://www.w3.org/2000/svg">
<g clip-path="url(#clip0)">
<path d="M28.426 50.7412H25.3248C23.8358 50.7412 22.6244 49.5296 22.6244 48.0407V47.9375C22.6244 46.4484 23.8358 45.237 25.3248 45.237H28.4258C29.6743 45.237 30.7275 46.0885 31.0352 47.2415H38.5024C43.3941 47.2415 47.3736 43.2614 47.3736 38.369V35.0677H46.8103V36.9112C46.8103 38.3154 45.6682 39.4577 44.2642 39.4577H42.1498C41.8262 39.4577 41.5509 39.2522 41.4467 38.9643H40.5679C39.4888 38.9643 38.6108 38.1291 38.6108 37.1024V25.2061C38.6108 24.1795 39.4888 23.3442 40.5679 23.3442H41.4467C41.5509 23.0564 41.8262 22.8508 42.1498 22.8508H44.4012C45.7295 22.8508 46.8103 23.9315 46.8103 25.2602V27.2408H47.3736V24.871C47.3736 12.3862 37.7687 2.22905 25.9621 2.22905C14.1558 2.22905 4.5506 12.3862 4.5506 24.871V27.2408H5.11395V25.2602C5.11395 23.9315 6.19479 22.8508 7.52304 22.8508H9.77442C10.0981 22.8508 10.3734 23.0564 10.4775 23.3442H11.3563C12.4354 23.3442 13.3134 24.1795 13.3134 25.2061V37.1024C13.3134 38.1291 12.4354 38.9643 11.3563 38.9643H10.4775C10.3734 39.2522 10.0981 39.4577 9.77442 39.4577H7.66008C6.25608 39.4577 5.11395 38.3154 5.11395 36.9112V35.0677H3.80313C3.39028 35.0677 3.05566 34.733 3.05566 34.3201V24.871C3.05566 11.5618 13.3316 0.733887 25.9621 0.733887C38.5929 0.733887 48.8688 11.5618 48.8688 24.871V38.3688C48.8688 44.0855 44.2186 48.7365 38.5027 48.7365H31.0354C30.7277 49.8895 29.6743 50.7412 28.426 50.7412ZM25.3248 46.7319C24.66 46.7319 24.1194 47.2727 24.1194 47.9373V48.0405C24.1194 48.7051 24.66 49.2458 25.3248 49.2458H28.4258C29.0905 49.2458 29.6312 48.7051 29.6312 48.0405V47.9373C29.6312 47.2727 29.0905 46.7319 28.4258 46.7319H25.3248ZM42.9872 37.9623H44.2644C44.844 37.9623 45.3156 37.4906 45.3156 36.911V25.2602C45.3156 24.7561 44.9055 24.3459 44.4015 24.3459H42.9872V37.9623ZM7.52304 24.3459C7.019 24.3459 6.60889 24.7561 6.60889 25.2602V36.911C6.60889 37.4909 7.08054 37.9623 7.66008 37.9623H9.02695V24.3459H7.52304ZM40.5679 24.8393C40.3173 24.8393 40.1057 25.0073 40.1057 25.2061V37.1024C40.1057 37.3012 40.3175 37.4692 40.5679 37.4692H41.4923V24.8393H40.5679ZM10.5219 37.4692H11.3566C11.6072 37.4692 11.8188 37.3012 11.8188 37.1024V25.2061C11.8188 25.0073 11.607 24.8393 11.3566 24.8393H10.5219V37.4692ZM46.8106 33.5723H47.3739V28.736H46.8106V33.5723ZM4.5506 33.5723H5.11395V28.736H4.5506V33.5723Z" fill="black"/>
</g>
<defs>
<clipPath id="clip0">
<rect width="50" height="50.0073" fill="white" transform="translate(0.961914 0.733887)"/>
</clipPath>
</defs>
</svg>
