<svg width="100" height="100" viewBox="0 0 100 100" fill="none" xmlns="http://www.w3.org/2000/svg">
<g clip-path="url(#clip0)">
<path d="M80.957 27.832C84.1934 27.832 86.8164 30.4551 86.8164 33.6914V62.9883H75.0977V33.6914C75.0977 30.4551 77.7207 27.832 80.957 27.832Z" fill="#FF8A7D"/>
<path d="M86.8164 16.1133C83.5801 16.1133 80.957 18.7363 80.957 21.9727V51.2695H92.6758V21.9727C92.6758 18.7363 90.0527 16.1133 86.8164 16.1133Z" fill="#FFA786"/>
<path d="M92.6281 10.2541C91.7648 10.2609 90.9455 10.4555 90.209 10.7988L87.6406 65.668L82.9102 87.793L97.3904 62.2715C98.1406 60.949 98.5352 59.4547 98.5352 57.9342V16.2379C98.5352 12.9887 95.8772 10.2281 92.6281 10.2541Z" fill="#FFA786"/>
<path d="M92.6757 16.1133V58.7416C92.6757 59.7424 92.5048 60.7357 92.1702 61.6791L82.9101 87.793L85.8397 98.5352H52.9468V92.6758L59.2772 73.4238L86.8163 51.2695V16.1133C86.8163 13.7578 88.205 11.7285 90.2089 10.7988C91.6659 11.7285 92.6757 13.7598 92.6757 16.1133Z" fill="#FFC38F"/>
<path d="M76.8149 47.1263C79.102 44.8373 82.813 44.8373 85.1001 47.1263C86.2446 48.2689 86.8169 49.7689 86.8169 51.2689C86.8169 52.7689 86.2446 54.2689 85.1001 55.4115L64.6655 75.848V80.957C64.6655 87.4023 59.3921 92.6758 52.9468 92.6758V75.8617C52.9468 72.6254 54.2515 69.6898 56.3706 67.5687L76.8149 47.1263Z" fill="#FFEAB0"/>
<path d="M19.043 27.832C15.8066 27.832 13.1836 30.4551 13.1836 33.6914V62.9883H24.9023V33.6914C24.9023 30.4551 22.2793 27.832 19.043 27.832Z" fill="#FF8A7D"/>
<path d="M13.1836 16.1133C9.94727 16.1133 7.32422 18.7363 7.32422 21.9727V51.2695H19.043V21.9727C19.043 18.7363 16.4199 16.1133 13.1836 16.1133Z" fill="#FFA786"/>
<path d="M47.0532 92.6757V98.5351H41.1938L29.4751 75.0453L47.0532 92.6757Z" fill="#FFA786"/>
<path d="M43.6292 67.5688L23.186 47.1264C21.9419 45.8803 20.2759 45.3139 18.647 45.4233L41.1937 91.0958C42.9202 92.0997 44.9222 92.6758 47.053 92.6758V75.8618C47.053 72.6254 45.7483 69.6899 43.6292 67.5688Z" fill="#FFC38F"/>
<path d="M39.7461 74.414L13.1836 51.2695V16.2349C13.1836 13.042 10.6799 10.3431 7.48809 10.256C4.17695 10.1658 1.46484 12.8224 1.46484 16.1132V57.9341C1.46484 59.4546 1.85918 60.949 2.60957 62.2714L17.0898 87.7929L14.1602 98.5351H41.1938V91.0957L39.7461 74.414Z" fill="#FFC38F"/>
<path d="M41.1938 75.8617V91.0957C37.6978 89.0625 35.3345 85.2715 35.3345 80.957V75.848L14.8999 55.4115C13.7554 54.2689 13.1831 52.7689 13.1831 51.2689C13.1831 49.7689 13.7554 48.2689 14.8999 47.1263C15.9409 46.0834 17.2808 45.515 18.646 45.4232C19.7729 45.515 20.8804 46.0834 21.7417 47.1263L38.3657 67.5687C40.1177 69.6898 41.1938 72.6254 41.1938 75.8617Z" fill="#FFEAB0"/>
<path d="M60.4492 1.46484C59.984 1.46484 59.5246 1.48945 59.0705 1.53203L50 47.3633L70.8072 26.5176C73.458 23.8617 75.0977 20.193 75.0977 16.1404C75.0977 8.03535 68.5393 1.46484 60.4492 1.46484Z" fill="#57BA98"/>
<path d="M69.2383 16.1404C69.2383 8.50312 64.7742 2.23086 59.0705 1.53203C55.5299 1.86367 52.3557 3.45645 50 5.85918C47.3422 3.14805 43.6434 1.46484 39.5508 1.46484C31.4607 1.46484 24.9023 8.03535 24.9023 16.1404C24.9023 20.193 26.542 23.8619 29.1928 26.5176L50 47.3633L65.9494 26.5176C67.9814 23.8617 69.2383 20.193 69.2383 16.1404Z" fill="#65CCB8"/>
<path d="M76.5625 16.1404C76.5625 7.24062 69.3342 0 60.4492 0C56.5721 0 52.9125 1.35918 50 3.85508C47.0875 1.35918 43.4279 0 39.5508 0C30.6658 0 23.4375 7.24062 23.4375 16.1404C23.4375 20.4512 25.1133 24.5041 28.1561 27.5525L48.9633 48.3982C49.2381 48.6736 49.6109 48.8283 50 48.8283C50.3891 48.8283 50.7619 48.6736 51.0367 48.3982L71.8439 27.5525C74.8867 24.5039 76.5625 20.451 76.5625 16.1404ZM50 45.2898L30.2295 25.4828C27.7389 22.9875 26.3672 19.6695 26.3672 16.1404C26.3672 8.85605 32.2812 2.92969 39.5508 2.92969C43.1143 2.92969 46.4535 4.33418 48.9541 6.88457C49.2297 7.16563 49.6066 7.32402 50 7.32402C50.3934 7.32402 50.7705 7.16563 51.0459 6.88457C53.5465 4.33418 56.8857 2.92969 60.4492 2.92969C67.7188 2.92969 73.6328 8.85605 73.6328 16.1404C73.6328 19.6695 72.2611 22.9875 69.7705 25.4828L50 45.2898Z" fill="#021C1E"/>
<path d="M24.3082 46.1768C23.2352 45.1038 21.9033 44.4239 20.5078 44.1405V29.5489C22.2127 30.1536 23.4375 31.7817 23.4375 33.6914V41.1469C23.4375 41.9559 24.0934 42.6118 24.9023 42.6118C25.7113 42.6118 26.3672 41.9559 26.3672 41.1469V33.6914C26.3672 30.1543 23.8469 27.1952 20.5078 26.5147V21.9727C20.5078 18.3846 17.9137 15.3932 14.5029 14.7698C13.8369 11.453 10.9631 8.88598 7.5291 8.79184C5.53242 8.73657 3.64629 9.4729 2.21699 10.8633C0.787305 12.2545 0 14.119 0 16.1133V57.9342C0 59.7045 0.461719 61.4543 1.33555 62.9944L15.5176 87.9905L12.7469 98.1498C12.6268 98.5903 12.7187 99.0616 12.9959 99.4244C13.273 99.7871 13.7037 100 14.1602 100H47.0531C47.8621 100 48.518 99.3442 48.518 98.5352V75.8617C48.518 72.3315 47.1494 69.0186 44.6645 66.533L24.3082 46.1768ZM17.5781 21.9727V44.1256C16.5336 44.328 15.5293 44.7555 14.6484 45.4116V17.8301C16.3533 18.4348 17.5781 20.0629 17.5781 21.9727ZM45.5883 97.0703H16.0779L18.5031 88.1784C18.6049 87.8051 18.5549 87.4067 18.3641 87.0702L3.88359 61.5487C3.25957 60.4487 2.92969 59.1989 2.92969 57.9342V16.1133C2.92969 14.9166 3.40215 13.7981 4.26016 12.9633C5.11758 12.129 6.25117 11.6873 7.44883 11.7206C9.80332 11.785 11.7187 13.8102 11.7187 16.2352V51.3672C11.7187 51.3924 11.7193 51.4174 11.7207 51.4424C11.7635 53.3344 12.5184 55.103 13.8641 56.4487L34.2986 76.8832C34.8707 77.4553 35.7982 77.4553 36.3701 76.8832C36.9422 76.3112 36.9422 75.3836 36.3701 74.8118L15.9355 54.377C15.1074 53.5487 14.652 52.4534 14.6484 51.2848V51.2569C14.6484 51.2407 14.6486 51.2247 14.6488 51.2084C14.6652 50.0121 15.1539 48.8995 16.0248 48.075C17.7353 46.4559 20.5219 46.5334 22.2365 48.2481L42.5928 68.6043C44.5244 70.5364 45.5883 73.1137 45.5883 75.8616V97.0703Z" fill="#021C1E"/>
<path d="M97.7827 10.8635C96.3534 9.4729 94.4673 8.73599 92.4706 8.79204C89.0366 8.88618 86.1626 11.4532 85.4968 14.77C82.086 15.3932 79.4919 18.3846 79.4919 21.9727V26.5147C76.1528 27.1952 73.6325 30.1543 73.6325 33.6915V41.1469C73.6325 41.9559 74.2884 42.6118 75.0974 42.6118C75.9063 42.6118 76.5622 41.9559 76.5622 41.1469V33.6915C76.5622 31.7817 77.787 30.1536 79.4919 29.5489V44.1403C78.0966 44.4237 76.7646 45.1036 75.6915 46.1768L55.3353 66.533C52.8503 69.0184 51.4819 72.3313 51.4819 75.8616V98.5352C51.4819 99.3442 52.1378 100 52.9468 100H85.8396C86.296 100 86.7267 99.7871 87.0036 99.4243C87.2808 99.0616 87.3728 98.5901 87.2526 98.1496L84.4819 87.9903L98.6642 62.9942C99.5378 61.4541 99.9995 59.7045 99.9995 57.934V16.1133C99.9997 14.119 99.2124 12.2545 97.7827 10.8635ZM82.4216 21.9727C82.4216 20.0629 83.6464 18.4348 85.3513 17.8301V45.4114C84.4704 44.7551 83.4661 44.3278 82.4216 44.1254V21.9727ZM97.07 57.9342C97.07 59.1989 96.7401 60.4487 96.1161 61.5487L81.6358 87.0702C81.4448 87.4067 81.395 87.8051 81.4968 88.1784L83.9218 97.0703H54.4114V75.8618C54.4114 73.1139 55.4753 70.5366 57.4067 68.6047L77.763 48.2485C79.4778 46.534 82.2644 46.4565 83.9747 48.0754C84.8456 48.8998 85.3343 50.0125 85.3507 51.2088C85.3509 51.225 85.3511 51.2411 85.3511 51.2573V51.2852C85.3476 52.4536 84.8921 53.5491 84.064 54.3774L63.6296 74.8116C63.0575 75.3836 63.0575 76.3112 63.6296 76.883C64.2017 77.4551 65.1292 77.4551 65.7011 76.883L86.1356 56.4485C87.4812 55.1028 88.2362 53.3342 88.279 51.4422C88.2802 51.4174 88.281 51.3922 88.281 51.367V16.2352C88.281 13.8102 90.1964 11.785 92.5509 11.7206C93.7505 11.6877 94.8821 12.1291 95.7396 12.9633C96.5976 13.7981 97.07 14.9166 97.07 16.1133V57.9342Z" fill="#021C1E"/>
</g>
<defs>
<clipPath id="clip0">
<rect width="100" height="100" fill="white"/>
</clipPath>
</defs>
</svg>
