<svg width="44" height="40" viewBox="0 0 44 40" fill="none" xmlns="http://www.w3.org/2000/svg">
<circle cx="20" cy="20" r="19" fill="white"/>
<path d="M20.5377 0C9.4935 0 0.538574 8.95492 0.538574 19.9992C0.538574 31.0434 9.4935 40 20.5377 40C31.582 40 40.5386 31.0434 40.5386 19.9992C40.5386 8.95492 31.582 0 20.5377 0ZM24.7011 30.996C23.6717 31.4023 22.8522 31.7105 22.2376 31.9238C21.6247 32.1371 20.9119 32.2438 20.1009 32.2438C18.8548 32.2438 17.8846 31.939 17.1938 31.3312C16.503 30.7234 16.1593 29.953 16.1593 29.0167C16.1593 28.6527 16.1847 28.2802 16.2355 27.901C16.288 27.5217 16.371 27.095 16.4844 26.6159L17.7729 22.0648C17.8863 21.6279 17.9845 21.2131 18.0624 20.8271C18.1403 20.4377 18.1775 20.0804 18.1775 19.7553C18.1775 19.1763 18.0573 18.7699 17.8186 18.5414C17.5765 18.3128 17.121 18.2011 16.4421 18.2011C16.1102 18.2011 15.7682 18.2502 15.4177 18.3534C15.0706 18.4601 14.7693 18.5566 14.5221 18.6514L14.8624 17.2495C15.7056 16.9058 16.5132 16.6112 17.2835 16.3674C18.0539 16.1202 18.782 15.9983 19.4677 15.9983C20.7053 15.9983 21.6603 16.2997 22.3324 16.8957C23.0012 17.4933 23.3382 18.2705 23.3382 19.2254C23.3382 19.4235 23.3144 19.7723 23.2687 20.2701C23.223 20.7695 23.1367 21.225 23.0114 21.6432L21.7297 26.1807C21.6247 26.5448 21.5316 26.9613 21.4469 27.4269C21.364 27.8925 21.3233 28.248 21.3233 28.4868C21.3233 29.0895 21.4571 29.501 21.728 29.7194C21.9955 29.9378 22.4645 30.0478 23.1282 30.0478C23.4414 30.0478 23.7919 29.992 24.1881 29.8836C24.5809 29.7752 24.8653 29.6787 25.0448 29.5958L24.7011 30.996ZM24.4742 12.5782C23.8766 13.1335 23.157 13.4112 22.3155 13.4112C21.4757 13.4112 20.7511 13.1335 20.1483 12.5782C19.5489 12.0229 19.2459 11.3473 19.2459 10.5583C19.2459 9.77101 19.5506 9.09376 20.1483 8.53333C20.7511 7.97122 21.4757 7.69185 22.3155 7.69185C23.157 7.69185 23.8783 7.97122 24.4742 8.53333C25.0719 9.09376 25.3716 9.77101 25.3716 10.5583C25.3716 11.349 25.0719 12.0229 24.4742 12.5782Z" fill="#69B98F"/>
</svg>
