<svg width="125" height="181" viewBox="0 0 125 181" fill="none" xmlns="http://www.w3.org/2000/svg">
<path d="M3.06348 181V157.685L60.6807 95.7949C66.54 89.2031 71.138 83.4658 74.4746 78.583C77.8112 73.7002 80.1712 69.265 81.5547 65.2773C83.0195 61.2083 83.752 57.18 83.752 53.1924C83.752 46.2751 81.7581 40.4157 77.7705 35.6143C73.8643 30.8128 68.0863 28.4121 60.4365 28.4121C52.2171 28.4121 45.9915 31.0977 41.7598 36.4688C37.528 41.7585 35.4121 49.0827 35.4121 58.4414H0.744141L0.5 57.709C0.255859 46.9668 2.53451 37.3232 7.33594 28.7783C12.2188 20.152 19.2174 13.3161 28.332 8.27051C37.528 3.22493 48.3516 0.702148 60.8027 0.702148C73.0098 0.702148 83.4671 2.89941 92.1748 7.29395C100.964 11.6071 107.718 17.6699 112.438 25.4824C117.159 33.2949 119.519 42.3281 119.519 52.582C119.519 59.6621 118.257 66.3353 115.734 72.6016C113.212 78.7865 109.265 85.3376 103.894 92.2549C98.5225 99.1722 91.6051 107.107 83.1416 116.059L48.5957 153.168L48.8398 153.778H94.8604L96.6914 136.811H124.279V181H3.06348Z" fill="#69B98F" fill-opacity="0.15"/>
</svg>
