<svg width="120" height="181" viewBox="0 0 120 181" fill="none" xmlns="http://www.w3.org/2000/svg">
<path d="M59.2441 180.563C48.4206 180.563 38.4922 178.57 29.459 174.582C20.5072 170.513 13.3864 164.735 8.09668 157.248C2.80697 149.761 0.28418 140.809 0.52832 130.393L0.772461 129.782L34.9521 128.073C34.9521 135.967 37.1901 142.152 41.666 146.628C46.1419 151.022 52.0013 153.22 59.2441 153.22C67.5449 153.22 73.6891 150.249 77.6768 144.309C81.6644 138.368 83.6582 130.677 83.6582 121.237C83.6582 110.983 81.5423 102.764 77.3105 96.5791C73.0788 90.3942 66.7718 87.3018 58.3896 87.3018C51.6351 87.3018 46.4268 88.5632 42.7646 91.0859C39.1839 93.6087 36.6204 97.0267 35.0742 101.34L3.58008 99.2646L13.834 0.265625H116.129V40.793H94.1562L90.9824 28.8301H43.1309L38.126 69.8457C40.3232 68.2181 42.846 66.7939 45.6943 65.5732C48.5426 64.2712 51.5944 63.2539 54.8496 62.5215C58.1862 61.7077 61.7262 61.3008 65.4697 61.3008C76.863 61.138 86.5472 63.4167 94.5225 68.1367C102.579 72.8568 108.683 79.6927 112.833 88.6445C117.065 97.5964 119.181 108.379 119.181 120.993C119.181 132.386 116.861 142.6 112.223 151.633C107.665 160.585 100.911 167.665 91.959 172.873C83.0885 178 72.1836 180.563 59.2441 180.563Z" fill="#69B98F" fill-opacity="0.15"/>
</svg>
