<svg width="124" height="184" viewBox="0 0 124 184" fill="none" xmlns="http://www.w3.org/2000/svg">
<path d="M61.2559 183.563C49.944 183.563 39.6494 181.57 30.3721 177.582C21.0947 173.594 13.7298 167.816 8.27734 160.248C2.90625 152.598 0.342773 143.362 0.586914 132.538L0.831055 131.806H35.377C35.377 136.526 36.4349 140.717 38.5508 144.379C40.6667 148.041 43.637 150.93 47.4619 153.046C51.3682 155.162 55.9661 156.22 61.2559 156.22C69.4753 156.22 75.945 153.941 80.665 149.384C85.4665 144.745 87.8672 138.316 87.8672 130.097C87.8672 121.796 85.5072 115.326 80.7871 110.688C76.0671 106.049 68.9463 103.729 59.4248 103.729H40.1377V76.9961H60.1572C65.8538 76.9961 70.5332 76.0195 74.1953 74.0664C77.8574 72.0319 80.5837 69.1836 82.374 65.5215C84.1644 61.8594 85.0596 57.5462 85.0596 52.582C85.0596 45.0137 83.0251 39.0729 78.9561 34.7598C74.887 30.3652 68.987 28.168 61.2559 28.168C56.6172 28.168 52.5075 29.1038 48.9268 30.9756C45.346 32.766 42.5384 35.3294 40.5039 38.666C38.5508 42.0026 37.5742 45.8682 37.5742 50.2627H3.02832L2.78418 49.5303C2.54004 40.0902 4.85938 31.708 9.74219 24.3838C14.625 16.9782 21.5016 11.2002 30.3721 7.0498C39.3239 2.81803 49.5371 0.702148 61.0117 0.702148C78.9967 0.702148 93.4417 5.09668 104.347 13.8857C115.252 22.5934 120.704 34.9632 120.704 50.9951C120.704 59.2959 118.385 66.7829 113.746 73.4561C109.189 80.1292 102.353 85.5817 93.2383 89.8135C103.085 93.3128 110.572 98.6839 115.699 105.927C120.908 113.17 123.512 121.592 123.512 131.195C123.512 142.019 120.826 151.337 115.455 159.149C110.084 166.962 102.678 172.984 93.2383 177.216C83.8796 181.448 73.2188 183.563 61.2559 183.563Z" fill="#69B98F" fill-opacity="0.15"/>
</svg>
