<svg width="25" height="25" viewBox="0 0 25 25" fill="none" xmlns="http://www.w3.org/2000/svg">
<g clip-path="url(#clip0)">
<path d="M10.3522 14.6456C7.96595 12.2597 7.42715 9.87387 7.3056 8.91797C7.27164 8.65366 7.36261 8.3886 7.55172 8.20083L9.48276 6.27093C9.76681 5.98709 9.81722 5.54473 9.60431 5.20428L6.52974 0.430824C6.29419 0.0538296 5.81053 -0.0822312 5.41293 0.116644L0.477154 2.44088C0.155627 2.59918 -0.03349 2.94075 0.00301576 3.29722C0.261636 5.75377 1.33276 11.7926 7.2681 17.7275C13.2034 23.6624 19.2422 24.7329 21.7004 24.9915C22.057 25.028 22.3986 24.8389 22.5569 24.5175L24.8815 19.5824C25.0796 19.1857 24.9444 18.7034 24.569 18.4675L19.7948 15.3942C19.4545 15.1811 19.0121 15.2311 18.728 15.5149L16.7978 17.4456C16.61 17.6347 16.3449 17.7257 16.0806 17.6917C15.1246 17.5702 12.7384 17.0315 10.3522 14.6456Z" fill="#6FB98F"/>
<path d="M19.8278 13.3606C19.3517 13.3606 18.9658 12.9747 18.9658 12.4987C18.9617 8.93004 16.0694 6.03811 12.5003 6.03407C12.0241 6.03407 11.6382 5.64817 11.6382 5.17213C11.6382 4.69609 12.0241 4.31018 12.5003 4.31018C17.0212 4.31517 20.6849 7.97836 20.6899 12.4987C20.6899 12.9747 20.3039 13.3606 19.8278 13.3606Z" fill="#6FB98F"/>
<path d="M24.1382 13.3602C23.6621 13.3602 23.2761 12.9742 23.2761 12.4982C23.2695 6.55047 18.4488 1.73054 12.5003 1.72389C12.0241 1.72389 11.6382 1.33798 11.6382 0.861945C11.6382 0.385906 12.0241 0 12.5003 0C19.4007 0.00760058 24.9927 5.59879 25.0003 12.4982C25.0003 12.7268 24.9094 12.9461 24.7478 13.1077C24.5861 13.2693 24.3668 13.3602 24.1382 13.3602Z" fill="#6FB98F"/>
</g>
<defs>
<clipPath id="clip0">
<rect width="25" height="24.9964" fill="white"/>
</clipPath>
</defs>
</svg>
