<svg width="100" height="100" viewBox="0 0 100 100" fill="none" xmlns="http://www.w3.org/2000/svg">
<path d="M90.2588 52.7578C92.3115 54.8105 91.4853 58.3066 88.7314 59.2246L82.8135 61.1328L84.9072 65.9062C85.8974 67.8867 85.0459 70.293 83.0303 71.209L81.3486 71.9727C81.6592 72.2832 82.0049 72.6289 82.0049 72.6289C83.5303 74.1543 83.5303 76.627 82.0049 78.1523L80.8603 79.2969C80.8603 83.6113 77.3623 87.1094 73.0478 87.1094H65.2353C59.8428 87.1094 55.4697 92.6543 55.4697 98.0469H24.2197C28.126 70.7031 8.59473 64.4531 8.59473 37.1094C8.59473 17.6934 24.335 1.95312 43.751 1.95312C63.167 1.95312 78.9072 17.6934 78.9072 37.1094C78.9072 39.6113 79.9014 42.0098 81.6689 43.7773L90.2588 52.7578Z" fill="#FCE8D0"/>
<path d="M43.751 56.6406C54.5378 56.6406 63.2822 47.8962 63.2822 37.1094C63.2822 26.3226 54.5378 17.5781 43.751 17.5781C32.9642 17.5781 24.2197 26.3226 24.2197 37.1094C24.2197 47.8962 32.9642 56.6406 43.751 56.6406Z" fill="#65CCBB"/>
<path d="M43.751 58.5938C55.5975 58.5938 65.2354 48.9559 65.2354 37.1094C65.2354 25.2629 55.5975 15.625 43.751 15.625C31.9045 15.625 22.2666 25.2629 22.2666 37.1094C22.2666 48.9559 31.9043 58.5938 43.751 58.5938ZM43.751 19.5312C53.4436 19.5312 61.3291 27.4168 61.3291 37.1094C61.3291 46.802 53.4436 54.6875 43.751 54.6875C34.0584 54.6875 26.1729 46.802 26.1729 37.1094C26.1729 27.4168 34.0584 19.5312 43.751 19.5312Z" fill="#021C1E"/>
<path d="M46.7838 32.9968L50.69 34.9499C51.6547 35.4324 52.8281 35.0412 53.3103 34.0763C53.7928 33.1117 53.4017 31.9384 52.4367 31.456L52.0244 31.2499L52.4367 31.0437C53.4015 30.5613 53.7926 29.388 53.3103 28.4234C52.8279 27.4585 51.6541 27.0673 50.69 27.5497L46.7838 29.5029C46.1219 29.8337 45.7041 30.5099 45.7041 31.2497C45.7041 31.9896 46.1219 32.666 46.7838 32.9968Z" fill="#021C1E"/>
<path d="M34.1915 34.0766C34.6747 35.0432 35.8491 35.4318 36.8118 34.9502L40.7181 32.9971C41.38 32.6662 41.7977 31.99 41.7977 31.2502C41.7977 30.5103 41.3798 29.8342 40.7181 29.5033L36.8118 27.5502C35.8472 27.0678 34.6739 27.4586 34.1915 28.4238C33.7091 29.3885 34.1001 30.5617 35.0651 31.0441L35.4774 31.2504L35.0651 31.4566C34.1003 31.9385 33.7093 33.1117 34.1915 34.0766Z" fill="#021C1E"/>
<path d="M33.9854 42.9688C33.9945 42.9688 34.0008 42.9695 34.0029 42.9688C34.1863 43.0693 34.5516 43.6533 34.7705 44.0039C35.4418 45.0777 36.565 46.875 38.8682 46.875C41.1713 46.875 42.2947 45.0777 42.9658 44.0039C43.1873 43.6494 43.5582 43.0559 43.726 42.9701C43.726 42.9701 43.7336 42.9688 43.751 42.9688C43.7602 42.9688 43.7666 42.9695 43.7686 42.9688C43.952 43.0693 44.3172 43.6533 44.5361 44.0039C45.2074 45.0777 46.3307 46.875 48.6338 46.875C50.9369 46.875 52.0603 45.0777 52.7314 44.0039C52.9529 43.6494 53.3238 43.0559 53.4916 42.9701C53.4916 42.9701 53.4992 42.9688 53.5166 42.9688C54.5951 42.9688 55.4697 42.0941 55.4697 41.0156C55.4697 39.9371 54.5951 39.0625 53.5166 39.0625C51.2135 39.0625 50.09 40.8598 49.4189 41.9336C49.1975 42.2881 48.8266 42.8816 48.6588 42.9674C48.6588 42.9674 48.6512 42.9688 48.6338 42.9688C48.6246 42.9688 48.6182 42.9682 48.6162 42.9688C48.4328 42.8682 48.0676 42.2842 47.8486 41.9336C47.1773 40.8598 46.0541 39.0625 43.751 39.0625C41.4479 39.0625 40.3244 40.8598 39.6533 41.9336C39.4318 42.2881 39.0609 42.8816 38.8932 42.9674C38.8932 42.9674 38.8855 42.9688 38.8682 42.9688C38.859 42.9688 38.8525 42.9682 38.8506 42.9688C38.6672 42.8682 38.302 42.2842 38.083 41.9336C37.4117 40.8598 36.2885 39.0625 33.9854 39.0625C32.9068 39.0625 32.0322 39.9371 32.0322 41.0156C32.0322 42.0941 32.9066 42.9688 33.9854 42.9688Z" fill="#021C1E"/>
<path d="M18.9463 14.2578C20.025 14.2578 20.8994 13.3834 20.8994 12.3047C20.8994 11.226 20.025 10.3516 18.9463 10.3516C17.8676 10.3516 16.9932 11.226 16.9932 12.3047C16.9932 13.3834 17.8676 14.2578 18.9463 14.2578Z" fill="#021C1E"/>
<path d="M83.05 42.3961C81.6381 40.9842 80.8603 39.1066 80.8603 37.1094C80.8603 16.6471 64.2133 0 43.751 0C37.0832 0 30.5439 1.78906 24.8396 5.17402C23.9121 5.72441 23.6064 6.92266 24.1568 7.85039C24.707 8.77793 25.9055 9.08379 26.8332 8.5332C31.9344 5.50625 37.7844 3.90625 43.751 3.90625C62.0592 3.90625 76.9541 18.8012 76.9541 37.1094C76.9541 40.1426 78.1322 42.9945 80.2719 45.1426C80.2719 45.1426 88.8676 54.1287 88.8777 54.1391C89.5721 54.8334 89.4721 55.649 89.3969 55.9676C89.3217 56.2863 89.0459 57.0611 88.132 57.3658L82.2141 59.274C81.6883 59.4436 81.2588 59.8277 81.0322 60.3316C80.8055 60.8354 80.8027 61.4115 81.0246 61.9174C82.5773 65.4563 83.1258 66.7111 83.1601 66.7799C83.3998 67.2588 83.4332 67.8008 83.2545 68.3055C83.076 68.8098 82.7094 69.2096 82.2226 69.4307L80.541 70.1943C79.9576 70.4592 79.5414 70.9936 79.4269 71.6238C79.3125 72.2541 79.5144 72.9006 79.9676 73.3537L80.6238 74.01C81.385 74.7711 81.385 76.0098 80.6238 76.7711L79.4793 77.9156C79.1131 78.282 78.9072 78.7787 78.9072 79.2967C78.9072 82.5275 76.2787 85.1561 73.0478 85.1561H65.2353C59.3498 85.1561 54.5838 90.3875 53.6736 96.0936H26.4262C27.8291 82.2857 23.2457 73.5854 18.8061 65.1568C14.7461 57.4494 10.5479 49.4791 10.5479 37.1094C10.5479 31.1428 12.1479 25.2928 15.1748 20.1916C15.7252 19.2639 15.4195 18.0656 14.492 17.5152C13.5635 16.9645 12.3656 17.2705 11.8156 18.198C8.43066 23.9023 6.6416 30.4416 6.6416 37.1094C6.6416 50.4449 11.0687 58.8496 15.35 66.9775C19.9357 75.6832 24.2668 83.9061 22.2863 97.7707C22.2062 98.3311 22.3732 98.8988 22.7443 99.3266C23.1152 99.7543 23.6537 100 24.2199 100H55.4699C56.5484 100 57.423 99.1254 57.423 98.0469C57.423 93.8922 60.8357 89.0625 65.2355 89.0625H73.048C78.1482 89.0625 82.3476 85.1328 82.7773 80.1422L83.3861 79.5334C85.2394 77.6801 85.5891 74.8836 84.4351 72.6746C85.5998 71.9781 86.4766 70.9096 86.9371 69.6092C87.4672 68.1119 87.3748 66.5061 86.6781 65.0811L85.4707 62.3281L89.349 61.0775C91.2896 60.4307 92.7287 58.8561 93.1986 56.865C93.6666 54.8824 93.0904 52.8391 91.6568 51.3939C82.8389 42.1752 83.0953 42.4424 83.05 42.3961Z" fill="#021C1E"/>
</svg>
