<svg width="50" height="51" viewBox="0 0 50 51" fill="none" xmlns="http://www.w3.org/2000/svg">
<g clip-path="url(#clip0)">
<path d="M39.4019 2.19425L39.3491 2.127C38.4592 1.23241 37.2487 0.730779 35.9869 0.733901H13.9841C11.3691 0.741827 9.25134 2.85993 9.24342 5.47523V45.9855C9.2409 47.2473 9.74234 48.4579 10.6363 49.3481C11.5264 50.2422 12.7368 50.7437 13.9985 50.7412H36.0013C37.2623 50.7451 38.4725 50.2454 39.3635 49.3529C40.2575 48.4627 40.7589 47.2521 40.7564 45.9903V5.48003C40.7494 4.25027 40.2636 3.07166 39.4019 2.19425ZM38.9168 45.9855C38.9173 46.7588 38.6097 47.5005 38.0619 48.0463C37.5161 48.5942 36.7745 48.9019 36.0013 48.9014H13.9841C13.2108 48.9019 12.4693 48.5942 11.9235 48.0463C11.3744 47.501 11.0651 46.7594 11.0638 45.9855V5.48003C11.0691 3.86921 12.3735 2.56462 13.9841 2.55934H36.0013C36.7751 2.56066 37.5166 2.87002 38.0619 3.41921L38.1051 3.45764C38.6295 4.00023 38.9222 4.72548 38.9216 5.48003L38.9168 45.9855Z" fill="black"/>
<path d="M24.9929 47.5126C25.7011 47.5126 26.2753 46.9384 26.2753 46.2302C26.2753 45.5219 25.7011 44.9478 24.9929 44.9478C24.2846 44.9478 23.7104 45.5219 23.7104 46.2302C23.7104 46.9384 24.2846 47.5126 24.9929 47.5126Z" fill="black"/>
<path d="M36.7267 6.45427H36.7171C35.9679 5.70164 34.95 5.27818 33.8881 5.27734H16.1167C15.0564 5.27939 14.0406 5.70284 13.2925 6.45427C12.54 7.20354 12.1166 8.2217 12.1157 9.28369V39.4706C12.1166 40.5327 12.54 41.5508 13.2925 42.3001C14.0416 43.0527 15.0596 43.4761 16.1215 43.477H33.8929C34.929 43.4764 35.9243 43.0733 36.669 42.3529L36.7267 42.3001C37.4792 41.5508 37.9026 40.5327 37.9034 39.4706V9.27889C37.9014 8.21858 37.4781 7.20246 36.7267 6.45427ZM35.425 41.0126L35.3866 41.0559C34.9816 41.4425 34.443 41.6576 33.8833 41.6564H16.1119C15.5333 41.6573 14.9784 41.4273 14.5701 41.0174C14.1589 40.6096 13.9273 40.0547 13.9265 39.4754V9.27889C13.9255 8.70028 14.1555 8.1452 14.5653 7.73688C14.9736 7.327 15.5285 7.09701 16.1071 7.09798H33.8785C34.457 7.09701 35.012 7.327 35.4202 7.73688C35.8301 8.1452 36.06 8.70028 36.059 9.27889L36.0687 39.4706C36.0678 40.0499 35.8362 40.6048 35.425 41.0126Z" fill="black"/>
</g>
<defs>
<clipPath id="clip0">
<rect width="50" height="50.0073" fill="white" transform="translate(0 0.733887)"/>
</clipPath>
</defs>
</svg>
