<svg width="51" height="51" viewBox="0 0 51 51" fill="none" xmlns="http://www.w3.org/2000/svg">
<g clip-path="url(#clip0)">
<path d="M25.981 0.733887C12.196 0.733887 0.980957 11.9505 0.980957 25.7375C0.980957 39.5246 12.196 50.7412 25.981 50.7412C39.7659 50.7412 50.981 39.5246 50.981 25.7375C50.981 11.9505 39.7661 0.733887 25.981 0.733887ZM25.981 48.0381C19.8564 48.0381 14.3012 45.5552 10.2674 41.5438C8.65657 39.9418 7.28915 38.0956 6.22444 36.0666C4.60297 32.9767 3.6837 29.4626 3.6837 25.7375C3.6837 13.441 13.6862 3.43702 25.981 3.43702C31.8126 3.43702 37.1276 5.68873 41.105 9.36736C43.1672 11.2744 44.8701 13.5647 46.0979 16.1245C47.4949 19.037 48.2782 22.2975 48.2782 25.7375C48.2782 38.0341 38.2757 48.0381 25.981 48.0381Z" fill="black"/>
<path d="M17.4355 20.0611C18.8883 20.0611 20.0702 21.1755 20.0702 22.6958H22.773C22.773 19.6552 20.3787 17.3584 17.4355 17.3584C14.4924 17.3584 12.0981 19.6552 12.0981 22.6958H14.8009C14.8009 21.1755 15.983 20.0611 17.4355 20.0611Z" fill="black"/>
<path d="M34.5264 20.0611C35.9791 20.0611 37.161 21.1755 37.161 22.6958H39.8638C39.8638 19.6552 37.4695 17.3584 34.5264 17.3584C31.5833 17.3584 29.189 19.6552 29.189 22.6958H31.8917C31.8917 21.1755 33.0736 20.0611 34.5264 20.0611Z" fill="black"/>
<path d="M25.9333 39.5907C31.1621 39.5907 36.1731 36.9163 39.0422 32.4759L36.7721 31.0088C34.1376 35.0863 29.3169 37.362 24.4927 36.805C20.7322 36.3713 17.2546 34.2044 15.1899 31.0088L12.9199 32.4759C15.4183 36.3429 19.6288 38.965 24.1829 39.4902C24.7675 39.5578 25.3513 39.5907 25.9333 39.5907Z" fill="black"/>
</g>
<defs>
<clipPath id="clip0">
<rect width="50" height="50.0073" fill="white" transform="translate(0.980957 0.733887)"/>
</clipPath>
</defs>
</svg>
