<svg width="51" height="51" viewBox="0 0 51 51" fill="none" xmlns="http://www.w3.org/2000/svg">
<g clip-path="url(#clip0)">
<path d="M25.7832 13.0405C25.2442 13.0405 24.8066 13.4781 24.8066 14.0171C24.8066 14.5561 25.2442 14.9937 25.7832 14.9937C26.3222 14.9937 26.7598 14.5561 26.7598 14.0171C26.7598 13.4781 26.3222 13.0405 25.7832 13.0405Z" fill="black"/>
<path d="M9.57227 30.6206C10.1113 30.6206 10.5488 30.1831 10.5488 29.644C10.5488 29.105 10.1113 28.6675 9.57227 28.6675C9.03325 28.6675 8.5957 29.105 8.5957 29.644C8.5957 30.1831 9.03325 30.6206 9.57227 30.6206Z" fill="black"/>
<path d="M33.5957 3.27295C24.804 3.27295 17.5881 9.33539 17.03 16.9716C8.65712 17.3917 0.783203 23.4301 0.783203 31.5974C0.783203 35.0105 2.13361 38.3176 4.5918 40.9379C5.07817 42.9432 4.48766 45.0687 3.02243 46.5341C2.74319 46.8134 2.65965 47.2335 2.81071 47.5986C2.96178 47.9633 3.31769 48.2014 3.71289 48.2014C6.498 48.2014 9.18202 47.1091 11.1763 45.1843C13.1192 45.8466 15.654 46.248 17.9707 46.248C26.7613 46.248 33.9764 40.1871 34.536 32.5524C36.5807 32.4616 38.7074 32.0839 40.3901 31.5104C42.3844 33.4352 45.0684 34.5275 47.8535 34.5275C48.2487 34.5275 48.6046 34.2895 48.7557 33.9247C48.9068 33.5596 48.8232 33.1395 48.544 32.8603C47.0788 31.3948 46.4882 29.2693 46.9746 27.264C49.4328 24.6437 50.7832 21.3367 50.7832 17.9235C50.7832 9.43726 42.3027 3.27295 33.5957 3.27295ZM17.9707 44.2946C15.6659 44.2946 13.0394 43.8421 11.2801 43.142C10.9032 42.9917 10.4725 43.0905 10.1983 43.39C9.01913 44.6792 7.48601 45.578 5.81555 45.9912C6.73604 44.2274 6.97102 42.1481 6.41103 40.1779C6.36678 40.0226 6.28476 39.8807 6.17223 39.7651C3.95665 37.4828 2.73633 34.5821 2.73633 31.5974C2.73633 24.7147 9.71265 18.9002 17.9707 18.9002C25.7687 18.9002 32.6191 24.3236 32.6191 31.5974C32.6191 38.5988 26.0479 44.2946 17.9707 44.2946ZM45.3942 26.0912C45.2816 26.2072 45.1996 26.3491 45.1554 26.504C44.5954 28.4742 44.8304 30.5536 45.7509 32.3173C44.0804 31.9045 42.5473 31.0053 41.3681 29.7161C41.0939 29.417 40.6632 29.3178 40.2863 29.4681C38.7616 30.0747 36.5864 30.4948 34.533 30.5963C34.2476 26.9027 32.4055 23.4312 29.2561 20.8536H41.9941C42.5335 20.8536 42.9707 20.4164 42.9707 19.8769C42.9707 19.3375 42.5335 18.9002 41.9941 18.9002H26.2558C24.0391 17.7717 21.55 17.1136 18.9881 16.9754C19.5492 10.4155 25.8866 5.22636 33.5957 5.22636C41.8538 5.22636 48.8301 11.0408 48.8301 17.9235C48.8301 20.9082 47.6098 23.8089 45.3942 26.0912Z" fill="black"/>
<path d="M25.7832 28.6675H13.4785C12.9391 28.6675 12.502 29.1046 12.502 29.644C12.502 30.1834 12.9391 30.6206 13.4785 30.6206H25.7832C26.3226 30.6206 26.7598 30.1834 26.7598 29.644C26.7598 29.1046 26.3226 28.6675 25.7832 28.6675Z" fill="black"/>
<path d="M25.7832 34.5278H9.57227C9.03287 34.5278 8.5957 34.965 8.5957 35.5044C8.5957 36.0438 9.03287 36.481 9.57227 36.481H25.7832C26.3226 36.481 26.7598 36.0438 26.7598 35.5044C26.7598 34.965 26.3226 34.5278 25.7832 34.5278Z" fill="black"/>
<path d="M41.9941 13.0405H29.6895C29.1501 13.0405 28.7129 13.4777 28.7129 14.0171C28.7129 14.5565 29.1501 14.9937 29.6895 14.9937H41.9941C42.5335 14.9937 42.9707 14.5565 42.9707 14.0171C42.9707 13.4777 42.5335 13.0405 41.9941 13.0405Z" fill="black"/>
</g>
<defs>
<clipPath id="clip0">
<rect width="50" height="50.0073" fill="white" transform="translate(0.783203 0.733887)"/>
</clipPath>
</defs>
</svg>
