<svg width="100" height="100" viewBox="0 0 100 100" fill="none" xmlns="http://www.w3.org/2000/svg">
<path d="M76.6559 61.8221C74.5582 66.6121 73.7717 71.8738 74.3773 77.068C74.7463 80.4486 75.4156 83.7897 76.3773 87.0516C76.8935 88.741 77.5459 90.3857 78.3281 91.9696C79.2982 93.4599 80.1743 95.0093 80.951 96.6089L39.8035 96.7237V96.7073C39.6723 96.2155 37.1969 86.5762 31.7215 84.1007C30.7051 84.4614 29.6231 84.8221 28.5248 85.1991C24.8836 86.4622 21.1792 87.5346 17.4264 88.4122C16.3926 88.6592 15.3037 88.507 14.3772 87.986C13.3228 87.3372 12.5371 86.3305 12.1641 85.1499C11.7347 83.9822 11.5777 82.7318 11.7051 81.4942C12.0828 80.2304 12.2108 78.9053 12.0822 77.5926C11.6559 75.9368 10.0822 75.527 8.81987 74.6417C7.81986 73.9204 9.63954 71.6089 9.63954 71.6089C9.63954 71.6089 7.70511 70.1827 7.01659 69.5598C6.29527 68.9696 7.31167 67.9532 8.21331 66.0352C8.58534 65.2024 8.69402 64.2757 8.52478 63.3794C8.18052 61.6253 5.50839 60.9532 4.21331 59.986C3.59036 59.527 2.59036 58.8385 2.4756 58.0024C2.29527 56.8385 3.67232 55.1991 4.34445 54.3794C7.20437 50.6938 9.65588 46.7088 11.6559 42.4942C11.9184 42.0493 12.0754 41.5502 12.1149 41.0352C12.0822 38.6909 8.68872 37.7237 8.37724 35.445C8.32843 34.7763 8.44674 34.1059 8.7215 33.4942C9.66687 31.4848 10.4774 29.4146 11.1477 27.2975C11.5512 25.3554 12.0713 23.4393 12.7051 21.5598C14.0799 17.7887 16.1983 14.3324 18.9346 11.3958C22.951 7.14994 28.8854 5.05158 34.492 3.93682C39.4779 2.84673 44.5339 2.10722 49.6231 1.72371C49.7871 1.70732 49.951 1.70732 50.115 1.69092C60.6068 1.16633 68.9018 4.72371 77.033 11.0844C81.4637 14.3898 84.7023 19.0436 86.2625 24.3467C87.4513 28.7259 88.0089 33.2524 87.9182 37.7893C87.8868 42.2698 86.5789 46.6485 84.1478 50.4122C81.7051 54.2647 78.492 57.6089 76.6559 61.8221Z" fill="#FFC38F"/>
<path d="M71.7379 61.8221C69.6401 66.6122 68.8537 71.8739 69.4592 77.068C69.8282 80.4487 70.4975 83.7897 71.4592 87.0516C71.9754 88.741 72.6278 90.3857 73.41 91.9697C74.3802 93.4599 75.2562 95.0094 76.033 96.609L39.8035 96.7074C39.6723 96.2156 37.1969 86.5762 31.7215 84.1008C30.7051 84.4615 29.6231 84.8221 28.5248 85.1992C28.0041 84.7558 27.4249 84.3862 26.8035 84.1008C22.8526 85.4779 18.033 87.068 14.3772 87.986C13.3228 87.3373 12.5371 86.3305 12.1641 85.15C11.7347 83.9823 11.5777 82.7319 11.7051 81.4942C12.0828 80.2305 12.2108 78.9053 12.0822 77.5926C11.6559 75.9369 10.0822 75.527 8.81986 74.6418C7.81986 73.9205 9.63954 71.609 9.63954 71.609C9.63954 71.609 7.70511 70.1828 7.01659 69.5598C6.29527 68.9697 7.31167 67.9533 8.21331 66.0352C8.58534 65.2024 8.69402 64.2758 8.52478 63.3795C8.18052 61.6254 5.50839 60.9533 4.21331 59.986C3.59036 59.527 2.59036 58.8385 2.4756 58.0024C2.29527 56.8385 3.67232 55.1992 4.34445 54.3795C7.20437 50.6939 9.65588 46.7088 11.6559 42.4942C11.9184 42.0494 12.0754 41.5503 12.1149 41.0352C12.0822 38.691 8.68872 37.7238 8.37724 35.4451C8.32843 34.7763 8.44674 34.1059 8.7215 33.4942C9.66687 31.4848 10.4774 29.4146 11.1477 27.2975C11.5512 25.3554 12.0713 23.4394 12.7051 21.5598C14.0799 17.7888 16.1983 14.3324 18.9346 11.3959C22.951 7.14998 28.8854 5.05162 34.492 3.93687C39.4779 2.84678 44.5339 2.10726 49.6231 1.72375C58.0822 2.24835 65.1641 5.64179 72.1149 11.0844C76.5456 14.3898 79.7843 19.0436 81.3444 24.3467C82.5333 28.7259 83.0908 33.2525 83.0002 37.7893C82.9688 42.2698 81.6608 46.6486 79.2297 50.4123C76.7871 54.2647 73.574 57.609 71.7379 61.8221Z" fill="#FFEAB0"/>
<path d="M97.5411 19.7729V22.8549C97.5459 23.4819 97.1063 24.0246 96.4919 24.15L91.8034 25.0844C91.4849 26.2805 91.0051 27.4276 90.3772 28.4942L93.0493 32.4778C93.3814 33.0046 93.3066 33.6907 92.869 34.1336L90.6886 36.3139C90.2457 36.7516 89.5596 36.8263 89.0329 36.4942L85.0493 33.8221C84.8526 33.9368 84.6394 34.0516 84.4263 34.1664C83.5411 34.6308 82.6062 34.9937 81.6394 35.2483L81.3608 36.6909L77.246 37.5106C76.9292 38.6899 76.4897 39.8328 75.9345 40.9205C75.4704 40.7922 75.1203 40.4103 75.0329 39.9368L74.0985 35.2483C72.9024 34.9299 71.7552 34.4501 70.6886 33.8221L66.705 36.4942C66.1783 36.8263 65.4922 36.7516 65.0493 36.3139L62.8689 34.1336C62.4313 33.6907 62.3565 33.0046 62.6886 32.4778L65.3608 28.4942C64.7328 27.4276 64.253 26.2805 63.9345 25.0844L59.246 24.15C58.6316 24.0246 58.192 23.4819 58.1968 22.8549V19.7729C58.192 19.1459 58.6316 18.6032 59.246 18.4778L63.9345 17.5434C64.1223 16.8152 64.3804 16.107 64.705 15.4286C64.8906 14.981 65.1098 14.5481 65.3608 14.1336L63.8526 11.8877L62.6886 10.15C62.3782 9.65104 62.4246 9.00898 62.8034 8.5598L62.8689 8.49422L65.0493 6.31389C65.4922 5.87621 66.1783 5.80148 66.705 6.13357L70.6886 8.8057C71.7552 8.17774 72.9024 7.69792 74.0985 7.37947L75.0329 2.69094C75.1583 2.0766 75.701 1.63694 76.328 1.64176H79.4099C80.0369 1.63694 80.5796 2.0766 80.705 2.69094L81.6394 7.37947C82.8355 7.69792 83.9827 8.17774 85.0493 8.8057L89.0329 6.13357C89.5596 5.80148 90.2457 5.87621 90.6886 6.31389L92.869 8.49422C93.3066 8.93712 93.3814 9.62323 93.0493 10.15L90.3772 14.1336C91.0051 15.2002 91.4849 16.3473 91.8034 17.5434L96.4919 18.4778C97.1063 18.6032 97.5459 19.1459 97.5411 19.7729Z" fill="#65CCBB"/>
<path d="M97.5409 19.7729V22.8548C97.5458 23.4818 97.1061 24.0245 96.4918 24.1499L91.8032 25.0843C91.4848 26.2804 91.005 27.4276 90.377 28.4942L93.0491 32.4778C93.3812 33.0045 93.3065 33.6906 92.8688 34.1335L90.6885 36.3139C90.2456 36.7515 89.5595 36.8263 89.0328 36.4942L86.9672 35.1171L87.9508 34.1335C88.3885 33.6906 88.4632 33.0045 88.1311 32.4778L85.459 28.4942C86.0869 27.4276 86.5668 26.2804 86.8852 25.0843L91.5737 24.1499C92.1881 24.0245 92.6277 23.4818 92.6229 22.8548V19.7729C92.6277 19.1459 92.1881 18.6032 91.5737 18.4778L86.8852 17.5434C86.5668 16.3473 86.0869 15.2001 85.459 14.1335L88.1311 10.1499C88.4632 9.62319 88.3885 8.93707 87.9508 8.49418L86.9672 7.51057L89.0328 6.13352C89.5595 5.80144 90.2456 5.87616 90.6885 6.31385L92.8688 8.49418C93.3065 8.93707 93.3812 9.62319 93.0491 10.1499L90.377 14.1335C91.005 15.2001 91.4848 16.3473 91.8032 17.5434L96.4918 18.4778C97.1061 18.6032 97.5458 19.1459 97.5409 19.7729Z" fill="#00838F"/>
<path d="M86.0655 21.3139C86.0655 25.8408 82.3957 29.5106 77.8688 29.5106C77.0362 29.5081 76.2081 29.3866 75.4098 29.15C71.9935 28.068 69.6719 24.8974 69.6719 21.3139C69.6719 17.7304 71.9935 14.5598 75.4098 13.4778C76.2081 13.2412 77.0362 13.1197 77.8688 13.1172C82.3957 13.1172 86.0655 16.787 86.0655 21.3139Z" fill="#FFA786"/>
<path d="M75.4101 29.1499C78.5789 29.1499 81.1478 25.6416 81.1478 21.3138C81.1478 16.9861 78.5789 13.4778 75.4101 13.4778C72.2412 13.4778 69.6724 16.9861 69.6724 21.3138C69.6724 25.6416 72.2412 29.1499 75.4101 29.1499Z" fill="#FFC38F"/>
<path d="M84.4264 30.8549V34.7237C84.4266 35.5029 83.8783 36.1745 83.1149 36.3303L81.3608 36.6909L77.2461 37.5106C76.9293 38.6899 76.4898 39.8328 75.9346 40.9204C75.7871 41.2155 75.6395 41.4942 75.4756 41.7729L78.8035 46.7401C79.2331 47.3916 79.144 48.2557 78.5903 48.8057L75.8526 51.5434C75.3026 52.097 74.4385 52.1862 73.7871 51.7565L68.8199 48.4286C67.4823 49.202 66.0494 49.7972 64.5576 50.1991L63.3772 56.068C63.2214 56.8314 62.5498 57.3796 61.7707 57.3795H57.9018C57.1227 57.3796 56.4511 56.8314 56.2953 56.068L55.1149 50.1991C53.6231 49.7972 52.1902 49.202 50.8526 48.4286L45.8854 51.7565C45.234 52.1862 44.3699 52.097 43.8199 51.5434L41.0822 48.8057C40.5285 48.2557 40.4394 47.3916 40.869 46.7401L44.1969 41.7729C43.4235 40.4354 42.8283 39.0025 42.4264 37.5106L36.5576 36.3303C35.7942 36.1745 35.2459 35.5029 35.2461 34.7237V30.8549C35.2459 30.0758 35.7942 29.4041 36.5576 29.2483L42.4264 28.068C42.8283 26.5761 43.4235 25.1432 44.1969 23.8057L40.869 18.8385C40.4394 18.187 40.5285 17.3229 41.0822 16.7729L43.8199 14.0352C44.3699 13.4816 45.234 13.3924 45.8854 13.8221L50.8526 17.15C52.1902 16.3766 53.6231 15.7814 55.1149 15.3795L56.2953 9.51062C56.4511 8.74723 57.1227 8.19899 57.9018 8.19914H61.7707C62.5519 8.19317 63.2267 8.74405 63.3772 9.51062L63.8526 11.8877L64.5576 15.3795L64.7051 15.4287C66.1456 15.8214 67.5288 16.4 68.8199 17.15L73.7871 13.8221C74.4385 13.3924 75.3026 13.4816 75.8526 14.0352L78.5903 16.7729C79.144 17.3229 79.2331 18.187 78.8035 18.8385L75.4756 23.8057C76.249 25.1432 76.8442 26.5761 77.2461 28.068L83.1149 29.2483C83.8783 29.4041 84.4266 30.0758 84.4264 30.8549Z" fill="#65CCBB"/>
<path d="M84.4265 30.8549V34.7238C84.4266 35.5029 83.8784 36.1745 83.115 36.3303L81.3609 36.691L78.3937 37.2812L77.2461 37.5107C76.9294 38.69 76.4898 39.8328 75.9347 40.9205C75.7871 41.2156 75.6396 41.4943 75.4756 41.773L78.8035 46.7402C79.2332 47.3916 79.144 48.2557 78.5904 48.8057L75.8527 51.5434C75.3027 52.0971 74.4386 52.1862 73.7871 51.7566L71.9511 50.5271L73.6724 48.8057C74.226 48.2557 74.3152 47.3916 73.8855 46.7402L70.5576 41.773C70.7216 41.4943 70.8691 41.2156 71.0166 40.9205C71.5718 39.8328 72.0113 38.69 72.3281 37.5107L76.4429 36.691L78.197 36.3303C78.9603 36.1745 79.5086 35.5029 79.5084 34.7238V30.8549C79.5086 30.0758 78.9603 29.4042 78.197 29.2484L72.3281 28.068C71.9262 26.5762 71.331 25.1433 70.5576 23.8057L73.8855 18.8385C74.3152 18.1871 74.226 17.323 73.6724 16.773L71.9511 15.0517L73.7871 13.8221C74.4386 13.3925 75.3027 13.4816 75.8527 14.0353L78.5904 16.773C79.144 17.323 79.2332 18.1871 78.8035 18.8385L75.4756 23.8057C76.249 25.1433 76.8442 26.5762 77.2461 28.068L83.115 29.2484C83.8784 29.4042 84.4266 30.0758 84.4265 30.8549Z" fill="#33BB99" fill-opacity="0.266667"/>
<path d="M59.8361 42.6254C65.2684 42.6254 69.6721 38.2216 69.6721 32.7893C69.6721 27.357 65.2684 22.9532 59.8361 22.9532C54.4038 22.9532 50 27.357 50 32.7893C50 38.2216 54.4038 42.6254 59.8361 42.6254Z" fill="#FFC38F"/>
<path d="M16.4164 90.1663C13.7111 90.1173 11.3564 88.3039 10.6181 85.7008C10.0913 84.292 9.90149 82.7796 10.064 81.2844C10.1246 80.8483 10.2181 80.4237 10.3148 79.9975C10.5217 79.3574 10.5833 78.6792 10.4951 78.0122C10.364 77.5024 9.98693 77.2467 9.01972 76.7008C8.62955 76.4778 8.23447 76.2499 7.87218 75.9876C7.34407 75.6073 6.99599 75.0262 6.90988 74.3811C6.84735 73.5568 7.03351 72.7328 7.44431 72.0155C6.88529 71.5876 6.27382 71.1057 5.91972 70.786C4.40496 69.5467 5.40824 67.7712 6.00988 66.7122C6.22955 66.3221 6.48693 65.8713 6.73119 65.3467C6.95695 64.8268 7.02149 64.2511 6.91644 63.6942C6.83283 63.268 5.64595 62.6614 4.93611 62.2991C4.34302 62.0182 3.7739 61.6893 3.23447 61.3155C2.05625 60.6492 1.1968 59.5356 0.850866 58.227C0.590211 56.5385 1.83447 54.8516 3.023 53.404C5.82873 49.7891 8.23405 45.8804 10.1968 41.7467C10.322 41.5235 10.4158 41.2841 10.4755 41.0352C10.4755 40.5827 9.93939 40.0647 9.13611 39.3286C7.92739 38.4369 7.07686 37.1428 6.73775 35.6795C6.65739 34.7392 6.81056 33.7937 7.18365 32.927C7.47873 32.1516 7.81152 31.4057 8.14431 30.6598C8.72956 29.4608 9.20049 28.2094 9.55087 26.9221C9.96191 24.9147 10.5013 22.9358 11.1656 20.9975C12.6107 17.0144 14.8481 13.3656 17.7427 10.2713C21.4082 6.39585 26.7804 3.79749 34.1722 2.32864C39.3947 1.18383 44.6942 0.423323 50.0279 0.0532329C51.9276 -0.0450252 53.832 -0.00722374 55.7263 0.166348C56.6317 0.250548 57.2974 1.05277 57.2132 1.95815C57.129 2.86354 56.3267 3.52924 55.4214 3.44503C53.6859 3.28111 51.9409 3.24385 50.2 3.33356C45.0263 3.6948 39.8859 4.43337 34.8197 5.5434C28.2033 6.85487 23.2623 9.20569 20.1246 12.5221C17.5353 15.296 15.5344 18.5655 14.2427 22.1336C13.6357 23.9079 13.1429 25.7192 12.7673 27.5565C12.3683 29.0882 11.8192 30.5769 11.1279 32.0008C10.8197 32.6909 10.5099 33.3795 10.2427 34.0811C10.0822 34.4496 9.99212 34.845 9.9771 35.2467C10.0476 35.7385 10.6755 36.304 11.3394 36.9139C12.6956 37.8683 13.5726 39.3628 13.7443 41.0122C13.7147 41.7907 13.4988 42.5508 13.1148 43.2286C11.0622 47.5491 8.54691 51.6342 5.61316 55.4122C4.36562 56.9368 4.09841 57.5434 4.09841 57.7876C4.40148 58.0824 4.7307 58.3491 5.08201 58.5844C5.50991 58.8828 5.96172 59.1455 6.43283 59.3696C7.83119 60.0844 9.74759 61.0647 10.1394 63.0647C10.3751 64.3028 10.2229 65.5836 9.70333 66.7319C9.41808 67.3401 9.123 67.8647 8.86562 68.3172C8.78529 68.4581 8.70169 68.6155 8.61808 68.7581C9.29841 69.3057 10.2263 70.0008 10.6181 70.2893C10.9752 70.5535 11.2098 70.9513 11.2682 71.3916C11.3266 71.832 11.2038 72.2772 10.9279 72.6253C10.6838 72.9423 10.4718 73.2828 10.2951 73.6417L10.6558 73.8417C12.0992 74.4661 13.2013 75.6854 13.6771 77.1844C13.9184 78.3561 13.862 79.5696 13.5132 80.7139C13.4378 81.0417 13.3607 81.3844 13.3132 81.7204C13.2271 82.7069 13.3655 83.7 13.7181 84.6253C14.0839 86.1354 15.5682 87.0944 17.0951 86.8073C21.8694 85.6587 26.5734 84.2355 31.1837 82.545C32.0392 82.2476 32.9739 82.7001 33.2714 83.5557C33.5688 84.4113 33.1163 85.346 32.2607 85.6434C27.5161 87.3826 22.6733 88.8414 17.7574 90.0122C17.3168 90.1088 16.8675 90.1604 16.4164 90.1663ZM8.05578 68.2991L8.1066 68.345L8.05578 68.2991Z" fill="#021C1E"/>
<path d="M19.1689 28.9892L15.9673 28.2794C16.3118 26.5859 16.7613 24.9155 17.3132 23.2778C18.4528 20.1224 20.2194 17.2304 22.5066 14.7761C25.1689 11.9696 29.5345 9.93678 35.4837 8.75318C36.3719 8.57708 37.2346 9.15434 37.4107 10.0425C37.5868 10.9307 37.0096 11.7935 36.1214 11.9696C30.8525 13.0171 27.0738 14.7204 24.8886 17.0286C22.9075 19.1595 21.3775 21.6687 20.3902 24.4056C19.8909 25.9074 19.4831 27.4381 19.1689 28.9892Z" fill="#021C1E"/>
<path d="M39.8035 98.3631C39.0486 98.3629 38.3914 97.8471 38.2117 97.1139C37.574 94.5221 35.0478 87.4024 31.0461 85.5942C30.4329 85.317 30.0514 84.6933 30.084 84.0211C30.1165 83.3489 30.5565 82.7649 31.1937 82.5483C32.8986 81.9696 34.4429 81.4287 35.6609 81.0041C36.8084 80.6057 37.6593 80.3057 38.1052 80.1631C44.9199 77.9926 46.3019 75.5368 46.2625 73.8598C46.2524 73.4242 46.4162 73.0024 46.7176 72.6877C47.0191 72.3731 47.4334 72.1913 47.8691 72.1827C48.3059 72.1645 48.7313 72.3246 49.0476 72.6264C49.3639 72.9282 49.5438 73.3456 49.5461 73.7827C49.6429 77.8516 46.1314 81.0483 39.1117 83.2909C38.6822 83.4287 37.8511 83.7188 36.7494 84.1106L35.274 84.6237C37.9785 87.6187 39.953 91.199 41.0429 95.0844L78.2265 94.9811L78.1166 94.8172C77.6444 94.137 77.2199 93.4249 76.8461 92.686C76.0302 91.0296 75.3499 89.3097 74.8117 87.5434C73.8168 84.1884 73.1265 80.7504 72.7494 77.2713C72.103 71.7869 72.9326 66.2294 75.1527 61.1729C76.4616 58.4365 78.0804 55.8596 79.9773 53.4926C80.9281 52.2106 81.9117 50.886 82.7642 49.5401C84.1404 47.4043 85.1386 45.0475 85.715 42.5729C85.9311 41.7041 86.8043 41.1693 87.6764 41.3716C88.5486 41.574 89.0971 42.4387 88.9085 43.3139C88.2494 46.1492 87.107 48.8499 85.5314 51.2975C84.615 52.7418 83.5953 54.1172 82.6101 55.445C80.8633 57.6141 79.3695 59.9753 78.1576 62.4827C76.1717 67.004 75.4281 71.9733 76.0035 76.8778C76.3587 80.1621 77.0078 83.4079 77.9429 86.5762C78.4335 88.1791 79.0524 89.7399 79.7937 91.2434C80.1073 91.8569 80.4622 92.4485 80.856 93.0139C81.5522 93.9695 82.1112 95.018 82.5166 96.1287C82.6731 96.6261 82.5835 97.1683 82.2754 97.589C81.9673 98.0098 81.4775 98.2588 80.956 98.2598L39.8084 98.3746L39.8035 98.3631Z" fill="#021C1E"/>
<path d="M61.7704 59.0188H57.9015C56.3385 59.0196 54.9923 57.9169 54.6851 56.3844L53.7015 51.486C52.7533 51.1747 51.8304 50.791 50.9409 50.3385L46.7983 53.1172C45.4883 53.984 43.7482 53.8034 42.6442 52.686L39.9228 49.9647C38.822 48.8671 38.6433 47.1472 39.495 45.8467L42.2819 41.6844C41.8293 40.7949 41.4457 39.8719 41.1343 38.9237L36.2294 37.9401C34.7014 37.6282 33.6046 36.2832 33.6064 34.7237V30.8549C33.6057 29.2919 34.7083 27.9456 36.2409 27.6385L41.1392 26.6549C41.4506 25.7067 41.8342 24.7838 42.2868 23.8942L39.5081 19.7516C38.6367 18.4419 38.8184 16.6979 39.9409 15.5959L42.6605 12.8762C43.7582 11.7753 45.4781 11.5966 46.7786 12.4483L50.9409 15.2352C51.8304 14.7827 52.7533 14.3991 53.7015 14.0877L54.6851 9.18277C54.997 7.65478 56.342 6.55794 57.9015 6.55982H61.7704C63.3334 6.55904 64.6796 7.6617 64.9868 9.19424L65.9704 14.0926C66.9186 14.404 67.8415 14.7876 68.731 15.2401L72.8737 12.4615C74.1834 11.5901 75.9273 11.7717 77.0294 12.8942L79.7491 15.6139C80.8499 16.7116 81.0286 18.4314 80.1769 19.7319L77.3901 23.8942C77.8426 24.7838 78.2262 25.7067 78.5376 26.6549L83.4425 27.6385C84.9705 27.9504 86.0673 29.2954 86.0655 30.8549V34.7237C86.0662 36.2868 84.9636 37.633 83.431 37.9401L78.5327 38.9237C78.2213 39.8719 77.8377 40.7949 77.3851 41.6844L80.1638 45.827C81.0352 47.1367 80.8536 48.8807 79.731 49.9828L77.0114 52.7024C75.9137 53.8033 74.1939 53.982 72.8933 53.1303L68.731 50.3434C67.8415 50.7959 66.9186 51.1796 65.9704 51.491L64.9868 56.3959C64.6749 57.9239 63.3299 59.0207 61.7704 59.0188ZM50.8524 46.7893C51.1403 46.7898 51.423 46.8662 51.672 47.0106C52.8869 47.712 54.188 48.252 55.5425 48.6172C56.1423 48.7796 56.5986 49.2671 56.7212 49.8762L57.9015 55.7401H61.7704L62.9491 49.8762C63.0716 49.2671 63.528 48.7796 64.1278 48.6172C65.4822 48.252 66.7833 47.712 67.9983 47.0106C68.5396 46.6966 69.2126 46.7182 69.7327 47.0664L74.6983 50.3942L77.431 47.6467L74.113 42.686C73.7649 42.1659 73.7432 41.493 74.0573 40.9516C74.7586 39.7367 75.2987 38.4356 75.6638 37.0811C75.8262 36.4814 76.3137 36.025 76.9228 35.9024L82.7868 34.7237V30.8533L76.9228 29.6746C76.3137 29.552 75.8262 29.0956 75.6638 28.4959C75.2987 27.1414 74.7586 25.8403 74.0573 24.6254C73.7432 24.084 73.7649 23.4111 74.113 22.891L77.4409 17.9254L74.6933 15.1942L69.7327 18.5123C69.2126 18.8604 68.5396 18.882 67.9983 18.568C66.7833 17.8667 65.4822 17.3266 64.1278 16.9615C63.528 16.7991 63.0716 16.3116 62.9491 15.7024L61.7704 9.8385H57.9015L56.7212 15.7024C56.5986 16.3116 56.1423 16.7991 55.5425 16.9615C54.188 17.3266 52.8869 17.8667 51.672 18.568C51.1306 18.882 50.4577 18.8604 49.9376 18.5123L44.972 15.1844L42.2392 17.9319L45.5573 22.8926C45.9054 23.4127 45.927 24.0856 45.613 24.627C44.9117 25.8419 44.3716 27.1431 44.0064 28.4975C43.8441 29.0973 43.3566 29.5536 42.7474 29.6762L36.8851 30.8549V34.7237L42.7491 35.9024C43.3582 36.025 43.8457 36.4814 44.0081 37.0811C44.3732 38.4356 44.9133 39.7367 45.6146 40.9516C45.9287 41.493 45.907 42.1659 45.5589 42.686L42.231 47.6516L44.9786 50.3844L49.9392 47.0664C50.2097 46.8861 50.5273 46.7897 50.8524 46.7893Z" fill="#021C1E"/>
<path d="M89.7542 38.3435C89.1908 38.3428 88.639 38.1831 88.1624 37.8828L84.9574 35.7402C84.1576 36.0149 83.2801 35.6361 82.9314 34.8657C82.5827 34.0952 82.8773 33.186 83.6115 32.7664L84.3017 32.3697C84.8317 32.0978 85.4675 32.1348 85.9624 32.4664L89.7099 34.9812L91.5296 33.1615L89.0165 29.4074C88.6641 28.8819 88.6456 28.2004 88.9689 27.6566C89.5212 26.7181 89.9431 25.7089 90.223 24.6566C90.3854 24.0553 90.8745 23.5979 91.4853 23.4762L95.9115 22.5959V20.032L91.4935 19.1516C90.8827 19.0299 90.3936 18.5726 90.2312 17.9713C89.9513 16.919 89.5294 15.9097 88.9771 14.9713C88.6513 14.429 88.6666 13.7476 89.0165 13.2205L91.5312 9.47296L89.7115 7.65328L85.9624 10.1664C85.4368 10.5188 84.7554 10.5373 84.2115 10.2139C83.2731 9.66164 82.2638 9.23973 81.2115 8.95984C80.6103 8.79746 80.1529 8.30837 80.0312 7.69755L79.1509 3.28115H76.587L75.7066 7.70738C75.5849 8.3182 75.1276 8.80729 74.5263 8.96968C73.474 9.24957 72.4647 9.67148 71.5263 10.2238C70.9805 10.5442 70.2991 10.5219 69.7755 10.1664L66.0279 7.65328L64.0443 9.63689C63.3995 10.2888 62.3523 10.307 61.6853 9.67787C61.3718 9.38506 61.1901 8.97791 61.1815 8.54904C61.1728 8.12017 61.338 7.70604 61.6394 7.40083L63.8853 5.15492C64.8663 4.17251 66.3977 4.00221 67.5706 4.74509L70.7771 6.88771C71.3933 6.57975 72.0297 6.31411 72.682 6.09263L73.4247 2.3664C73.7046 0.986762 74.9202 -0.00297771 76.3279 0.00246373H79.4099C80.8248 -0.00175777 82.0436 0.99899 82.3148 2.38771L83.0558 6.09755C83.7078 6.31917 84.3442 6.58424 84.9607 6.89099L88.1197 4.77296C89.2965 4.00348 90.8513 4.16279 91.8476 5.15492L94.0279 7.33525C95.0115 8.31572 95.1819 9.84789 94.4378 11.0205L92.2951 14.2221C92.6031 14.8383 92.8687 15.4748 93.0902 16.1271L96.8165 16.8697C98.1961 17.1497 99.1858 18.3652 99.1804 19.773V22.8549C99.1854 24.2705 98.1845 25.4902 96.7951 25.7615L93.0853 26.5008C92.8637 27.1528 92.5986 27.7892 92.2919 28.4057L94.4099 31.5648C95.1787 32.7417 95.0195 34.2961 94.0279 35.2926L91.8476 37.473C91.2936 38.0303 90.5401 38.3436 89.7542 38.3435Z" fill="#021C1E"/>
<path d="M59.8362 44.2647C53.4986 44.2647 48.3608 39.1269 48.3608 32.7893C48.3608 26.4516 53.4986 21.3138 59.8362 21.3138C66.1739 21.3138 71.3116 26.4516 71.3116 32.7893C71.3044 39.124 66.1709 44.2574 59.8362 44.2647ZM59.8362 24.5925C55.3093 24.5925 51.6395 28.2623 51.6395 32.7893C51.6395 37.3162 55.3093 40.986 59.8362 40.986C64.3632 40.986 68.033 37.3162 68.033 32.7893C68.0275 28.2646 64.3609 24.598 59.8362 24.5925Z" fill="#021C1E"/>
<path d="M59.8361 34.4286C60.7415 34.4286 61.4755 33.6946 61.4755 32.7892C61.4755 31.8839 60.7415 31.1499 59.8361 31.1499C58.9307 31.1499 58.1968 31.8839 58.1968 32.7892C58.1968 33.6946 58.9307 34.4286 59.8361 34.4286Z" fill="#021C1E"/>
<path d="M81.3281 30.4778C80.5496 30.4784 79.8781 29.9315 79.7212 29.169C79.5642 28.4065 79.9651 27.6388 80.6805 27.3319C83.5328 26.0976 85.1268 23.0306 84.4979 19.987C83.8691 16.9434 81.19 14.7593 78.0822 14.7565C77.3338 14.7517 76.5907 14.8822 75.8887 15.1418C75.0557 15.4082 74.1603 14.9739 73.8538 14.1548C73.5474 13.3357 73.9379 12.4203 74.7412 12.0746C75.8099 11.6764 76.9417 11.4743 78.0822 11.4778C82.7454 11.4834 86.7638 14.7626 87.7043 19.33C88.6449 23.8974 86.249 28.4975 81.9674 30.345C81.7654 30.4317 81.5479 30.4769 81.3281 30.4778Z" fill="#021C1E"/>
<path d="M15.5739 36.068C16.4793 36.068 17.2133 35.334 17.2133 34.4287C17.2133 33.5233 16.4793 32.7893 15.5739 32.7893C14.6685 32.7893 13.9346 33.5233 13.9346 34.4287C13.9346 35.334 14.6685 36.068 15.5739 36.068Z" fill="#021C1E"/>
</svg>
