<svg width="50" height="51" viewBox="0 0 50 51" fill="none" xmlns="http://www.w3.org/2000/svg">
<g clip-path="url(#clip0)">
<path d="M36.4582 50.7413C28.9915 50.7413 22.9165 44.6655 22.9165 37.1978C22.9165 29.7301 28.9915 23.6543 36.4582 23.6543C43.9248 23.6543 49.9998 29.7301 49.9998 37.1978C49.9998 44.6655 43.9248 50.7413 36.4582 50.7413ZM36.4582 25.7379C30.1394 25.7379 24.9998 30.8803 24.9998 37.1978C24.9998 43.5153 30.1394 48.6577 36.4582 48.6577C42.7769 48.6577 47.9165 43.5153 47.9165 37.1978C47.9165 30.8803 42.7769 25.7379 36.4582 25.7379Z" fill="black"/>
<path d="M34.3751 42.4068C34.1001 42.4068 33.8335 42.2964 33.6376 42.1026L29.4709 37.9353C29.0647 37.529 29.0647 36.8685 29.4709 36.4622C29.8772 36.0559 30.5376 36.0559 30.9439 36.4622L34.323 39.8419L40.8814 32.345C41.2605 31.9095 41.9189 31.8678 42.3522 32.2471C42.7855 32.6263 42.8293 33.2826 42.4501 33.716L35.1585 42.0505C34.9689 42.2672 34.696 42.3964 34.4085 42.4068C34.398 42.4068 34.3855 42.4068 34.3751 42.4068Z" fill="black"/>
<path d="M19.7917 44.4895H5.20833C2.3375 44.4895 0 42.1538 0 39.2805V12.1934C0 9.32011 2.3375 6.98438 5.20833 6.98438H9.375C9.95 6.98438 10.4167 7.45111 10.4167 8.02618C10.4167 8.60126 9.95 9.06799 9.375 9.06799H5.20833C3.48542 9.06799 2.08333 10.4703 2.08333 12.1934V39.2805C2.08333 41.0036 3.48542 42.4059 5.20833 42.4059H19.7917C20.3667 42.4059 20.8333 42.8726 20.8333 43.4477C20.8333 44.0228 20.3667 44.4895 19.7917 44.4895Z" fill="black"/>
<path d="M34.375 19.4861C33.8 19.4861 33.3333 19.0194 33.3333 18.4443V12.1934C33.3333 10.4703 31.9312 9.06799 30.2083 9.06799H26.0417C25.4667 9.06799 25 8.60126 25 8.02618C25 7.45111 25.4667 6.98438 26.0417 6.98438H30.2083C33.0792 6.98438 35.4167 9.32011 35.4167 12.1934V18.4443C35.4167 19.0194 34.95 19.4861 34.375 19.4861Z" fill="black"/>
<path d="M23.9585 13.2361H11.4585C9.73558 13.2361 8.3335 11.8338 8.3335 10.1107V5.94342C8.3335 5.36834 8.80016 4.90161 9.37516 4.90161H12.6043C13.0897 2.52629 15.1918 0.734375 17.7085 0.734375C20.2252 0.734375 22.3272 2.52629 22.8127 4.90161H26.0418C26.6168 4.90161 27.0835 5.36834 27.0835 5.94342V10.1107C27.0835 11.8338 25.6814 13.2361 23.9585 13.2361ZM10.4168 6.98523V10.1107C10.4168 10.6837 10.8835 11.1525 11.4585 11.1525H23.9585C24.5335 11.1525 25.0002 10.6837 25.0002 10.1107V6.98523H21.8752C21.3002 6.98523 20.8335 6.5185 20.8335 5.94342C20.8335 4.22027 19.4314 2.81799 17.7085 2.81799C15.9856 2.81799 14.5835 4.22027 14.5835 5.94342C14.5835 6.5185 14.1168 6.98523 13.5418 6.98523H10.4168Z" fill="black"/>
<path d="M28.125 19.4867H7.29167C6.71667 19.4867 6.25 19.02 6.25 18.445C6.25 17.87 6.71667 17.4033 7.29167 17.4033H28.125C28.7 17.4033 29.1667 17.87 29.1667 18.445C29.1667 19.02 28.7 19.4867 28.125 19.4867Z" fill="black"/>
<path d="M21.875 25.7376H7.29167C6.71667 25.7376 6.25 25.271 6.25 24.696C6.25 24.121 6.71667 23.6543 7.29167 23.6543H21.875C22.45 23.6543 22.9167 24.121 22.9167 24.696C22.9167 25.271 22.45 25.7376 21.875 25.7376Z" fill="black"/>
<path d="M17.7083 31.9881H7.29167C6.71667 31.9881 6.25 31.5214 6.25 30.9464C6.25 30.3715 6.71667 29.9048 7.29167 29.9048H17.7083C18.2833 29.9048 18.75 30.3715 18.75 30.9464C18.75 31.5214 18.2833 31.9881 17.7083 31.9881Z" fill="black"/>
</g>
<defs>
<clipPath id="clip0">
<rect width="50" height="50.0068" fill="white" transform="translate(0 0.734375)"/>
</clipPath>
</defs>
</svg>
